G04 Layer: BottomSilkscreenLayer*
G04 EasyEDA v6.5.51, 2026-01-06 12:56:04*
G04 1113702be1cd41808594c38f47402924,c4b17a851ec2441f8c3d070488828a27,10*
G04 Gerber Generator version 0.2*
G04 Scale: 100 percent, Rotated: No, Reflected: No *
G04 Dimensions in inches *
G04 leading zeros omitted , absolute positions ,3 integer and 6 decimal *
%FSLAX36Y36*%
%MOIN*%

%ADD10C,0.0060*%
%ADD11C,0.0100*%
%ADD12C,0.0079*%
%ADD13C,0.0118*%
%ADD14C,0.0315*%
%ADD15C,0.0105*%

%LPD*%
D10*
X688389Y-3192125D02*
G01*
X688389Y-3235025D01*
X688389Y-3192125D02*
G01*
X669989Y-3192125D01*
X663890Y-3194124D01*
X661790Y-3196224D01*
X659789Y-3200324D01*
X659789Y-3204425D01*
X661790Y-3208524D01*
X663890Y-3210524D01*
X669989Y-3212525D01*
X688389Y-3212525D01*
X674090Y-3212525D02*
G01*
X659789Y-3235025D01*
X625790Y-3192125D02*
G01*
X625790Y-3224825D01*
X627890Y-3231024D01*
X629890Y-3233024D01*
X633989Y-3235025D01*
X638090Y-3235025D01*
X642190Y-3233024D01*
X644189Y-3231024D01*
X646289Y-3224825D01*
X646289Y-3220725D01*
X612289Y-3200324D02*
G01*
X608189Y-3198225D01*
X602089Y-3192125D01*
X602089Y-3235025D01*
X905000Y-2399600D02*
G01*
X905000Y-2442500D01*
X905000Y-2399600D02*
G01*
X886599Y-2399600D01*
X880500Y-2401599D01*
X878400Y-2403699D01*
X876400Y-2407800D01*
X876400Y-2411900D01*
X878400Y-2415999D01*
X880500Y-2418000D01*
X886599Y-2420000D01*
X905000Y-2420000D01*
X890699Y-2420000D02*
G01*
X876400Y-2442500D01*
X862899Y-2407800D02*
G01*
X858800Y-2405700D01*
X852600Y-2399600D01*
X852600Y-2442500D01*
X900000Y-2624600D02*
G01*
X900000Y-2667500D01*
X900000Y-2624600D02*
G01*
X881599Y-2624600D01*
X875500Y-2626599D01*
X873400Y-2628699D01*
X871400Y-2632800D01*
X871400Y-2636900D01*
X873400Y-2640999D01*
X875500Y-2643000D01*
X881599Y-2645000D01*
X900000Y-2645000D01*
X885699Y-2645000D02*
G01*
X871400Y-2667500D01*
X837399Y-2624600D02*
G01*
X857899Y-2653200D01*
X827200Y-2653200D01*
X837399Y-2624600D02*
G01*
X837399Y-2667500D01*
X900000Y-8514600D02*
G01*
X900000Y-8557500D01*
X900000Y-8514600D02*
G01*
X881599Y-8514600D01*
X875500Y-8516599D01*
X873400Y-8518699D01*
X871400Y-8522799D01*
X871400Y-8526899D01*
X873400Y-8531000D01*
X875500Y-8533000D01*
X881599Y-8535000D01*
X900000Y-8535000D01*
X885699Y-8535000D02*
G01*
X871400Y-8557500D01*
X857899Y-8522799D02*
G01*
X853800Y-8520699D01*
X847600Y-8514600D01*
X847600Y-8557500D01*
X809600Y-8514600D02*
G01*
X830000Y-8514600D01*
X832100Y-8533000D01*
X830000Y-8531000D01*
X823900Y-8528900D01*
X817799Y-8528900D01*
X811599Y-8531000D01*
X807500Y-8535000D01*
X805500Y-8541199D01*
X805500Y-8545299D01*
X807500Y-8551400D01*
X811599Y-8555500D01*
X817799Y-8557500D01*
X823900Y-8557500D01*
X830000Y-8555500D01*
X832100Y-8553500D01*
X834099Y-8549399D01*
X935000Y-49600D02*
G01*
X935000Y-92500D01*
X935000Y-49600D02*
G01*
X916599Y-49600D01*
X910500Y-51599D01*
X908400Y-53699D01*
X906400Y-57800D01*
X906400Y-61900D01*
X908400Y-65999D01*
X910500Y-68000D01*
X916599Y-70000D01*
X935000Y-70000D01*
X920699Y-70000D02*
G01*
X906400Y-92500D01*
X880600Y-49600D02*
G01*
X886700Y-51599D01*
X890799Y-57800D01*
X892899Y-68000D01*
X892899Y-74099D01*
X890799Y-84400D01*
X886700Y-90500D01*
X880600Y-92500D01*
X876499Y-92500D01*
X870399Y-90500D01*
X866300Y-84400D01*
X864200Y-74099D01*
X864200Y-68000D01*
X866300Y-57800D01*
X870399Y-51599D01*
X876499Y-49600D01*
X880600Y-49600D01*
X900000Y-2914600D02*
G01*
X900000Y-2957500D01*
X900000Y-2914600D02*
G01*
X881599Y-2914600D01*
X875500Y-2916599D01*
X873400Y-2918699D01*
X871400Y-2922800D01*
X871400Y-2926900D01*
X873400Y-2930999D01*
X875500Y-2933000D01*
X881599Y-2935000D01*
X900000Y-2935000D01*
X885699Y-2935000D02*
G01*
X871400Y-2957500D01*
X833299Y-2914600D02*
G01*
X853800Y-2914600D01*
X855799Y-2933000D01*
X853800Y-2930999D01*
X847600Y-2928899D01*
X841499Y-2928899D01*
X835399Y-2930999D01*
X831300Y-2935000D01*
X829200Y-2941199D01*
X829200Y-2945300D01*
X831300Y-2951399D01*
X835399Y-2955500D01*
X841499Y-2957500D01*
X847600Y-2957500D01*
X853800Y-2955500D01*
X855799Y-2953499D01*
X857899Y-2949400D01*
X1105000Y-3339600D02*
G01*
X1105000Y-3382500D01*
X1105000Y-3339600D02*
G01*
X1086599Y-3339600D01*
X1080500Y-3341599D01*
X1078400Y-3343699D01*
X1076400Y-3347800D01*
X1076400Y-3351900D01*
X1078400Y-3355999D01*
X1080500Y-3358000D01*
X1086599Y-3360000D01*
X1105000Y-3360000D01*
X1090699Y-3360000D02*
G01*
X1076400Y-3382500D01*
X1038299Y-3345700D02*
G01*
X1040399Y-3341599D01*
X1046499Y-3339600D01*
X1050600Y-3339600D01*
X1056700Y-3341599D01*
X1060799Y-3347800D01*
X1062899Y-3358000D01*
X1062899Y-3368200D01*
X1060799Y-3376399D01*
X1056700Y-3380500D01*
X1050600Y-3382500D01*
X1048500Y-3382500D01*
X1042399Y-3380500D01*
X1038299Y-3376399D01*
X1036300Y-3370300D01*
X1036300Y-3368200D01*
X1038299Y-3362100D01*
X1042399Y-3358000D01*
X1048500Y-3355999D01*
X1050600Y-3355999D01*
X1056700Y-3358000D01*
X1060799Y-3362100D01*
X1062899Y-3368200D01*
X900000Y-4034600D02*
G01*
X900000Y-4077500D01*
X900000Y-4034600D02*
G01*
X881599Y-4034600D01*
X875500Y-4036599D01*
X873400Y-4038699D01*
X871400Y-4042800D01*
X871400Y-4046900D01*
X873400Y-4050999D01*
X875500Y-4053000D01*
X881599Y-4055000D01*
X900000Y-4055000D01*
X885699Y-4055000D02*
G01*
X871400Y-4077500D01*
X829200Y-4034600D02*
G01*
X849700Y-4077500D01*
X857899Y-4034600D02*
G01*
X829200Y-4034600D01*
X900000Y-4594600D02*
G01*
X900000Y-4637500D01*
X900000Y-4594600D02*
G01*
X881599Y-4594600D01*
X875500Y-4596599D01*
X873400Y-4598699D01*
X871400Y-4602800D01*
X871400Y-4606900D01*
X873400Y-4610999D01*
X875500Y-4613000D01*
X881599Y-4615000D01*
X900000Y-4615000D01*
X885699Y-4615000D02*
G01*
X871400Y-4637500D01*
X847600Y-4594600D02*
G01*
X853800Y-4596599D01*
X855799Y-4600700D01*
X855799Y-4604800D01*
X853800Y-4608899D01*
X849700Y-4610999D01*
X841499Y-4613000D01*
X835399Y-4615000D01*
X831300Y-4619099D01*
X829200Y-4623200D01*
X829200Y-4629400D01*
X831300Y-4633499D01*
X833299Y-4635500D01*
X839499Y-4637500D01*
X847600Y-4637500D01*
X853800Y-4635500D01*
X855799Y-4633499D01*
X857899Y-4629400D01*
X857899Y-4623200D01*
X855799Y-4619099D01*
X851700Y-4615000D01*
X845600Y-4613000D01*
X837399Y-4610999D01*
X833299Y-4608899D01*
X831300Y-4604800D01*
X831300Y-4600700D01*
X833299Y-4596599D01*
X839499Y-4594600D01*
X847600Y-4594600D01*
X900000Y-5154600D02*
G01*
X900000Y-5197500D01*
X900000Y-5154600D02*
G01*
X881599Y-5154600D01*
X875500Y-5156599D01*
X873400Y-5158699D01*
X871400Y-5162800D01*
X871400Y-5166900D01*
X873400Y-5170999D01*
X875500Y-5173000D01*
X881599Y-5175000D01*
X900000Y-5175000D01*
X885699Y-5175000D02*
G01*
X871400Y-5197500D01*
X831300Y-5168899D02*
G01*
X833299Y-5175000D01*
X837399Y-5179099D01*
X843500Y-5181199D01*
X845600Y-5181199D01*
X851700Y-5179099D01*
X855799Y-5175000D01*
X857899Y-5168899D01*
X857899Y-5166900D01*
X855799Y-5160700D01*
X851700Y-5156599D01*
X845600Y-5154600D01*
X843500Y-5154600D01*
X837399Y-5156599D01*
X833299Y-5160700D01*
X831300Y-5168899D01*
X831300Y-5179099D01*
X833299Y-5189400D01*
X837399Y-5195500D01*
X843500Y-5197500D01*
X847600Y-5197500D01*
X853800Y-5195500D01*
X855799Y-5191399D01*
X900000Y-5714600D02*
G01*
X900000Y-5757500D01*
X900000Y-5714600D02*
G01*
X881599Y-5714600D01*
X875500Y-5716599D01*
X873400Y-5718699D01*
X871400Y-5722800D01*
X871400Y-5726900D01*
X873400Y-5730999D01*
X875500Y-5733000D01*
X881599Y-5735000D01*
X900000Y-5735000D01*
X885699Y-5735000D02*
G01*
X871400Y-5757500D01*
X857899Y-5722800D02*
G01*
X853800Y-5720700D01*
X847600Y-5714600D01*
X847600Y-5757500D01*
X821899Y-5714600D02*
G01*
X828000Y-5716599D01*
X832100Y-5722800D01*
X834099Y-5733000D01*
X834099Y-5739099D01*
X832100Y-5749400D01*
X828000Y-5755500D01*
X821899Y-5757500D01*
X817799Y-5757500D01*
X811599Y-5755500D01*
X807500Y-5749400D01*
X805500Y-5739099D01*
X805500Y-5733000D01*
X807500Y-5722800D01*
X811599Y-5716599D01*
X817799Y-5714600D01*
X821899Y-5714600D01*
X900000Y-6274600D02*
G01*
X900000Y-6317500D01*
X900000Y-6274600D02*
G01*
X881599Y-6274600D01*
X875500Y-6276599D01*
X873400Y-6278699D01*
X871400Y-6282800D01*
X871400Y-6286900D01*
X873400Y-6290999D01*
X875500Y-6293000D01*
X881599Y-6295000D01*
X900000Y-6295000D01*
X885699Y-6295000D02*
G01*
X871400Y-6317500D01*
X857899Y-6282800D02*
G01*
X853800Y-6280700D01*
X847600Y-6274600D01*
X847600Y-6317500D01*
X834099Y-6282800D02*
G01*
X830000Y-6280700D01*
X823900Y-6274600D01*
X823900Y-6317500D01*
X900000Y-6834600D02*
G01*
X900000Y-6877500D01*
X900000Y-6834600D02*
G01*
X881599Y-6834600D01*
X875500Y-6836599D01*
X873400Y-6838699D01*
X871400Y-6842800D01*
X871400Y-6846900D01*
X873400Y-6850999D01*
X875500Y-6853000D01*
X881599Y-6855000D01*
X900000Y-6855000D01*
X885699Y-6855000D02*
G01*
X871400Y-6877500D01*
X857899Y-6842800D02*
G01*
X853800Y-6840700D01*
X847600Y-6834600D01*
X847600Y-6877500D01*
X832100Y-6844800D02*
G01*
X832100Y-6842800D01*
X830000Y-6838699D01*
X828000Y-6836599D01*
X823900Y-6834600D01*
X815699Y-6834600D01*
X811599Y-6836599D01*
X809600Y-6838699D01*
X807500Y-6842800D01*
X807500Y-6846900D01*
X809600Y-6850999D01*
X813699Y-6857100D01*
X834099Y-6877500D01*
X805500Y-6877500D01*
X900000Y-7394600D02*
G01*
X900000Y-7437500D01*
X900000Y-7394600D02*
G01*
X881599Y-7394600D01*
X875500Y-7396599D01*
X873400Y-7398699D01*
X871400Y-7402800D01*
X871400Y-7406900D01*
X873400Y-7410999D01*
X875500Y-7413000D01*
X881599Y-7415000D01*
X900000Y-7415000D01*
X885699Y-7415000D02*
G01*
X871400Y-7437500D01*
X857899Y-7402800D02*
G01*
X853800Y-7400700D01*
X847600Y-7394600D01*
X847600Y-7437500D01*
X830000Y-7394600D02*
G01*
X807500Y-7394600D01*
X819799Y-7410999D01*
X813699Y-7410999D01*
X809600Y-7413000D01*
X807500Y-7415000D01*
X805500Y-7421199D01*
X805500Y-7425300D01*
X807500Y-7431399D01*
X811599Y-7435500D01*
X817799Y-7437500D01*
X823900Y-7437500D01*
X830000Y-7435500D01*
X832100Y-7433499D01*
X834099Y-7429400D01*
X900000Y-7954600D02*
G01*
X900000Y-7997500D01*
X900000Y-7954600D02*
G01*
X881599Y-7954600D01*
X875500Y-7956599D01*
X873400Y-7958699D01*
X871400Y-7962799D01*
X871400Y-7966899D01*
X873400Y-7971000D01*
X875500Y-7973000D01*
X881599Y-7975000D01*
X900000Y-7975000D01*
X885699Y-7975000D02*
G01*
X871400Y-7997500D01*
X857899Y-7962799D02*
G01*
X853800Y-7960699D01*
X847600Y-7954600D01*
X847600Y-7997500D01*
X813699Y-7954600D02*
G01*
X834099Y-7983199D01*
X803500Y-7983199D01*
X813699Y-7954600D02*
G01*
X813699Y-7997500D01*
X659600Y-8300000D02*
G01*
X690300Y-8300000D01*
X696399Y-8301999D01*
X700500Y-8306099D01*
X702500Y-8312299D01*
X702500Y-8316400D01*
X700500Y-8322500D01*
X696399Y-8326599D01*
X690300Y-8328599D01*
X659600Y-8328599D01*
X667800Y-8342100D02*
G01*
X665700Y-8346199D01*
X659600Y-8352399D01*
X702500Y-8352399D01*
X696170Y-2453389D02*
G01*
X694070Y-2457489D01*
X689969Y-2461588D01*
X685970Y-2463589D01*
X677770Y-2463589D01*
X673670Y-2461588D01*
X669569Y-2457489D01*
X667469Y-2453389D01*
X665470Y-2447188D01*
X665470Y-2436988D01*
X667469Y-2430889D01*
X669569Y-2426788D01*
X673670Y-2422689D01*
X677770Y-2420689D01*
X685970Y-2420689D01*
X689969Y-2422689D01*
X694070Y-2426788D01*
X696170Y-2430889D01*
X709670Y-2463589D02*
G01*
X709670Y-2420689D01*
X709670Y-2463589D02*
G01*
X738270Y-2420689D01*
X738270Y-2463589D02*
G01*
X738270Y-2420689D01*
X751770Y-2455389D02*
G01*
X755869Y-2457489D01*
X761970Y-2463589D01*
X761970Y-2420689D01*
D11*
X1005000Y-3255001D02*
G01*
X1005000Y-3445001D01*
X365000Y-3255001D02*
G01*
X1005000Y-3255001D01*
X365000Y-3445001D02*
G01*
X365000Y-3255001D01*
X365000Y-3915001D02*
G01*
X365000Y-3560001D01*
X1005000Y-3915001D02*
G01*
X365000Y-3915001D01*
X1005000Y-3560001D02*
G01*
X1005000Y-3915001D01*
D10*
X883220Y-2511008D02*
G01*
X845469Y-2511008D01*
X845469Y-2458991D01*
X883220Y-2458991D01*
X916779Y-2511008D02*
G01*
X954530Y-2511008D01*
X954530Y-2458991D01*
X916779Y-2458991D01*
X883220Y-2586008D02*
G01*
X845469Y-2586008D01*
X845469Y-2533991D01*
X883220Y-2533991D01*
X916779Y-2586008D02*
G01*
X954530Y-2586008D01*
X954530Y-2533991D01*
X916779Y-2533991D01*
X883220Y-2656008D02*
G01*
X845469Y-2656008D01*
X845469Y-2603991D01*
X883220Y-2603991D01*
X916779Y-2656008D02*
G01*
X954530Y-2656008D01*
X954530Y-2603991D01*
X916779Y-2603991D01*
X883220Y-2736008D02*
G01*
X845469Y-2736008D01*
X845469Y-2683991D01*
X883220Y-2683991D01*
X916779Y-2736008D02*
G01*
X954530Y-2736008D01*
X954530Y-2683991D01*
X916779Y-2683991D01*
X883220Y-8626008D02*
G01*
X845469Y-8626008D01*
X845469Y-8573991D01*
X883220Y-8573991D01*
X916779Y-8626008D02*
G01*
X954530Y-8626008D01*
X954530Y-8573991D01*
X916779Y-8573991D01*
X883220Y-161008D02*
G01*
X845469Y-161008D01*
X845469Y-108991D01*
X883220Y-108991D01*
X916779Y-161008D02*
G01*
X954530Y-161008D01*
X954530Y-108991D01*
X916779Y-108991D01*
X883220Y-3026008D02*
G01*
X845469Y-3026008D01*
X845469Y-2973991D01*
X883220Y-2973991D01*
X916779Y-3026008D02*
G01*
X954530Y-3026008D01*
X954530Y-2973991D01*
X916779Y-2973991D01*
X1088220Y-3451008D02*
G01*
X1050469Y-3451008D01*
X1050469Y-3398991D01*
X1088220Y-3398991D01*
X1121779Y-3451008D02*
G01*
X1159530Y-3451008D01*
X1159530Y-3398991D01*
X1121779Y-3398991D01*
X883220Y-4146008D02*
G01*
X845469Y-4146008D01*
X845469Y-4093991D01*
X883220Y-4093991D01*
X916779Y-4146008D02*
G01*
X954530Y-4146008D01*
X954530Y-4093991D01*
X916779Y-4093991D01*
X883220Y-4706008D02*
G01*
X845469Y-4706008D01*
X845469Y-4653991D01*
X883220Y-4653991D01*
X916779Y-4706008D02*
G01*
X954530Y-4706008D01*
X954530Y-4653991D01*
X916779Y-4653991D01*
X883220Y-5266008D02*
G01*
X845469Y-5266008D01*
X845469Y-5213991D01*
X883220Y-5213991D01*
X916779Y-5266008D02*
G01*
X954530Y-5266008D01*
X954530Y-5213991D01*
X916779Y-5213991D01*
X883220Y-5826008D02*
G01*
X845469Y-5826008D01*
X845469Y-5773991D01*
X883220Y-5773991D01*
X916779Y-5826008D02*
G01*
X954530Y-5826008D01*
X954530Y-5773991D01*
X916779Y-5773991D01*
X883220Y-6386008D02*
G01*
X845469Y-6386008D01*
X845469Y-6333991D01*
X883220Y-6333991D01*
X916779Y-6386008D02*
G01*
X954530Y-6386008D01*
X954530Y-6333991D01*
X916779Y-6333991D01*
X883220Y-6946008D02*
G01*
X845469Y-6946008D01*
X845469Y-6893991D01*
X883220Y-6893991D01*
X916779Y-6946008D02*
G01*
X954530Y-6946008D01*
X954530Y-6893991D01*
X916779Y-6893991D01*
X883220Y-7506008D02*
G01*
X845469Y-7506008D01*
X845469Y-7453991D01*
X883220Y-7453991D01*
X916779Y-7506008D02*
G01*
X954530Y-7506008D01*
X954530Y-7453991D01*
X916779Y-7453991D01*
X883220Y-8066008D02*
G01*
X845469Y-8066008D01*
X845469Y-8013991D01*
X883220Y-8013991D01*
X916779Y-8066008D02*
G01*
X954530Y-8066008D01*
X954530Y-8013991D01*
X916779Y-8013991D01*
D12*
X575000Y-8160000D02*
G01*
X575000Y-8480000D01*
X775000Y-8480000D01*
X775000Y-8160000D01*
X575000Y-8160000D01*
D11*
X1367914Y-2216064D02*
G01*
X1367914Y-2405036D01*
X1367915Y-2405037D01*
X-17910Y-2216064D02*
G01*
X-17910Y-2405037D01*
X-17910Y-2405037D02*
G01*
X1367915Y-2405037D01*
X1367914Y-234963D02*
G01*
X1367914Y-2216064D01*
X-17910Y-2216064D02*
G01*
X-17910Y-234963D01*
X1367914Y-234963D02*
G01*
X-17910Y-234963D01*
D13*
G75*
G01
X752520Y-8179250D02*
G03X752520Y-8179250I-5910J0D01*
G75*
G01
X821150Y-8155380D02*
G03X821150Y-8155380I-5910J0D01*
D14*
G75*
G01
X415160Y-995590D02*
G03X415160Y-995590I-15750J0D01*
M02*
