M48
INCH,LZ
;FILE_FORMAT=2:4
;TYPE=PLATED
;Layer: PTH_Through_Via
;EasyEDA v6.5.51, 2026-01-06 12:56:04
;1113702be1cd41808594c38f47402924,c4b17a851ec2441f8c3d070488828a27,10
;Gerber Generator version 0.2
;Holesize 1 = 0.0120 inch
T01C0.0120
%
G05
G90
T01
X013250Y-083850
X013000Y-083600
X012650Y-083350
X012350Y-083050
X012050Y-082800
X011750Y-082550
X011450Y-082300
X011150Y-082050
X003000Y-082050
X003250Y-082300
X003550Y-082550
X003800Y-082850
X004050Y-083100
X004300Y-083350
X004650Y-083588
X004300Y-083850
X002350Y-034050
X002050Y-033050
X001650Y-034350
X010800Y-081800
X002850Y-033550
X005450Y-017250
X006700Y-037250
M30
