M48
INCH,LZ
;FILE_FORMAT=2:4
;TYPE=PLATED
;Layer: PTH_Through
;EasyEDA v6.5.51, 2026-01-06 12:56:04
;1113702be1cd41808594c38f47402924,c4b17a851ec2441f8c3d070488828a27,10
;Gerber Generator version 0.2
;Holesize 1 = 0.0120 inch
T01C0.0120
;Holesize 2 = 0.0320 inch
T02C0.0320
;Holesize 3 = 0.0360 inch
T03C0.0360
;Holesize 4 = 0.0360 inch
T04C0.0360
;Holesize 5 = 0.0670 inch
T05C0.0670
;Holesize 6 = 0.0790 inch
T06C0.0790
%
G05
G90
T01
X013250Y-083850
X013000Y-083600
X012650Y-083350
X012350Y-083050
X012050Y-082800
X011750Y-082550
X011450Y-082300
X011150Y-082050
X003000Y-082050
X003250Y-082300
X003550Y-082550
X003800Y-082850
X004050Y-083100
X004300Y-083350
X004650Y-083588
X004300Y-083850
X002350Y-034050
X002050Y-033050
X001650Y-034350
X010800Y-081800
X002850Y-033550
X005450Y-017250
X006700Y-037250
T02
X007341Y-002050
X006159Y-002050
X007341Y-007600
X006159Y-007600
X007341Y-013200
X006159Y-013200
X007341Y-018800
X006159Y-018800
X007341Y-024400
X006159Y-024400
X007341Y-030000
X006159Y-030000
X007341Y-035600
X006159Y-035600
X007341Y-041200
X006159Y-041200
X007341Y-046800
X006159Y-046800
X007341Y-052400
X006159Y-052400
X007341Y-058000
X006159Y-058000
X007341Y-063600
X006159Y-063600
X007341Y-069200
X006159Y-069200
X007341Y-074800
X006159Y-074800
X007341Y-080400
X006159Y-080400
X007341Y-086000
X006159Y-086000
T03
X008374Y-038159
T04
X004326Y-038159
X005326Y-038159
X009374Y-038159
X005100Y-033041
X005600Y-034041
X006100Y-033041
X006600Y-034041
X007100Y-033041
X007600Y-034041
X008100Y-033041
X008600Y-034041
T05
X003734Y-035025
X009966Y-035025
T06
X008545Y-010371
X008545Y-012127
X008545Y-014277
X008545Y-016029
X004955Y-016029
X004955Y-014277
X004955Y-012127
X004955Y-010371
M30
