G04 Layer: BottomPasteMaskLayer*
G04 EasyEDA v6.5.51, 2026-01-06 12:56:04*
G04 1113702be1cd41808594c38f47402924,c4b17a851ec2441f8c3d070488828a27,10*
G04 Gerber Generator version 0.2*
G04 Scale: 100 percent, Rotated: No, Reflected: No *
G04 Dimensions in inches *
G04 leading zeros omitted , absolute positions ,3 integer and 6 decimal *
%FSLAX36Y36*%
%MOIN*%

%ADD10O,0.059055X0.015748*%
%ADD11O,0.0172X0.015748*%

%LPD*%
G36*
X852960Y-2467280D02*
G01*
X850980Y-2469260D01*
X850980Y-2500740D01*
X852960Y-2502720D01*
X884440Y-2502720D01*
X886420Y-2500740D01*
X886420Y-2491220D01*
X871860Y-2491220D01*
X871860Y-2478220D01*
X886420Y-2478220D01*
X886420Y-2469260D01*
X884440Y-2467280D01*
G37*
G36*
X915560Y-2467280D02*
G01*
X913580Y-2469260D01*
X913580Y-2478780D01*
X928139Y-2478780D01*
X928139Y-2491780D01*
X913580Y-2491780D01*
X913580Y-2500740D01*
X915560Y-2502720D01*
X947039Y-2502720D01*
X949020Y-2500740D01*
X949020Y-2469260D01*
X947039Y-2467280D01*
G37*
G36*
X852960Y-2542280D02*
G01*
X850980Y-2544260D01*
X850980Y-2575740D01*
X852960Y-2577720D01*
X884440Y-2577720D01*
X886420Y-2575740D01*
X886420Y-2566220D01*
X871860Y-2566220D01*
X871860Y-2553220D01*
X886420Y-2553220D01*
X886420Y-2544260D01*
X884440Y-2542280D01*
G37*
G36*
X915560Y-2542280D02*
G01*
X913580Y-2544260D01*
X913580Y-2553780D01*
X928139Y-2553780D01*
X928139Y-2566780D01*
X913580Y-2566780D01*
X913580Y-2575740D01*
X915560Y-2577720D01*
X947039Y-2577720D01*
X949020Y-2575740D01*
X949020Y-2544260D01*
X947039Y-2542280D01*
G37*
G36*
X852960Y-2612280D02*
G01*
X850980Y-2614260D01*
X850980Y-2645740D01*
X852960Y-2647720D01*
X884440Y-2647720D01*
X886420Y-2645740D01*
X886420Y-2636220D01*
X871860Y-2636220D01*
X871860Y-2623220D01*
X886420Y-2623220D01*
X886420Y-2614260D01*
X884440Y-2612280D01*
G37*
G36*
X915560Y-2612280D02*
G01*
X913580Y-2614260D01*
X913580Y-2623780D01*
X928139Y-2623780D01*
X928139Y-2636780D01*
X913580Y-2636780D01*
X913580Y-2645740D01*
X915560Y-2647720D01*
X947039Y-2647720D01*
X949020Y-2645740D01*
X949020Y-2614260D01*
X947039Y-2612280D01*
G37*
G36*
X852960Y-2692280D02*
G01*
X850980Y-2694260D01*
X850980Y-2725740D01*
X852960Y-2727720D01*
X884440Y-2727720D01*
X886420Y-2725740D01*
X886420Y-2716220D01*
X871860Y-2716220D01*
X871860Y-2703220D01*
X886420Y-2703220D01*
X886420Y-2694260D01*
X884440Y-2692280D01*
G37*
G36*
X915560Y-2692280D02*
G01*
X913580Y-2694260D01*
X913580Y-2703780D01*
X928139Y-2703780D01*
X928139Y-2716780D01*
X913580Y-2716780D01*
X913580Y-2725740D01*
X915560Y-2727720D01*
X947039Y-2727720D01*
X949020Y-2725740D01*
X949020Y-2694260D01*
X947039Y-2692280D01*
G37*
G36*
X852960Y-8582280D02*
G01*
X850980Y-8584260D01*
X850980Y-8615740D01*
X852960Y-8617720D01*
X884440Y-8617720D01*
X886420Y-8615740D01*
X886420Y-8606220D01*
X871860Y-8606220D01*
X871860Y-8593220D01*
X886420Y-8593220D01*
X886420Y-8584260D01*
X884440Y-8582280D01*
G37*
G36*
X915560Y-8582280D02*
G01*
X913580Y-8584260D01*
X913580Y-8593780D01*
X928139Y-8593780D01*
X928139Y-8606780D01*
X913580Y-8606780D01*
X913580Y-8615740D01*
X915560Y-8617720D01*
X947039Y-8617720D01*
X949020Y-8615740D01*
X949020Y-8584260D01*
X947039Y-8582280D01*
G37*
G36*
X852960Y-117280D02*
G01*
X850980Y-119260D01*
X850980Y-150740D01*
X852960Y-152720D01*
X884440Y-152720D01*
X886420Y-150740D01*
X886420Y-141220D01*
X871860Y-141220D01*
X871860Y-128219D01*
X886420Y-128219D01*
X886420Y-119260D01*
X884440Y-117280D01*
G37*
G36*
X915560Y-117280D02*
G01*
X913580Y-119260D01*
X913580Y-128780D01*
X928139Y-128780D01*
X928139Y-141780D01*
X913580Y-141780D01*
X913580Y-150740D01*
X915560Y-152720D01*
X947039Y-152720D01*
X949020Y-150740D01*
X949020Y-119260D01*
X947039Y-117280D01*
G37*
G36*
X852960Y-2982280D02*
G01*
X850980Y-2984260D01*
X850980Y-3015740D01*
X852960Y-3017720D01*
X884440Y-3017720D01*
X886420Y-3015740D01*
X886420Y-3006220D01*
X871860Y-3006220D01*
X871860Y-2993220D01*
X886420Y-2993220D01*
X886420Y-2984260D01*
X884440Y-2982280D01*
G37*
G36*
X915560Y-2982280D02*
G01*
X913580Y-2984260D01*
X913580Y-2993780D01*
X928139Y-2993780D01*
X928139Y-3006780D01*
X913580Y-3006780D01*
X913580Y-3015740D01*
X915560Y-3017720D01*
X947039Y-3017720D01*
X949020Y-3015740D01*
X949020Y-2984260D01*
X947039Y-2982280D01*
G37*
G36*
X1057960Y-3407280D02*
G01*
X1055980Y-3409260D01*
X1055980Y-3440740D01*
X1057960Y-3442720D01*
X1089440Y-3442720D01*
X1091420Y-3440740D01*
X1091420Y-3431220D01*
X1076860Y-3431220D01*
X1076860Y-3418220D01*
X1091420Y-3418220D01*
X1091420Y-3409260D01*
X1089440Y-3407280D01*
G37*
G36*
X1120560Y-3407280D02*
G01*
X1118580Y-3409260D01*
X1118580Y-3418780D01*
X1133140Y-3418780D01*
X1133140Y-3431780D01*
X1118580Y-3431780D01*
X1118580Y-3440740D01*
X1120560Y-3442720D01*
X1152040Y-3442720D01*
X1154020Y-3440740D01*
X1154020Y-3409260D01*
X1152040Y-3407280D01*
G37*
G36*
X852960Y-4102280D02*
G01*
X850980Y-4104260D01*
X850980Y-4135740D01*
X852960Y-4137720D01*
X884440Y-4137720D01*
X886420Y-4135740D01*
X886420Y-4126220D01*
X871860Y-4126220D01*
X871860Y-4113220D01*
X886420Y-4113220D01*
X886420Y-4104260D01*
X884440Y-4102280D01*
G37*
G36*
X915560Y-4102280D02*
G01*
X913580Y-4104260D01*
X913580Y-4113780D01*
X928139Y-4113780D01*
X928139Y-4126780D01*
X913580Y-4126780D01*
X913580Y-4135740D01*
X915560Y-4137720D01*
X947039Y-4137720D01*
X949020Y-4135740D01*
X949020Y-4104260D01*
X947039Y-4102280D01*
G37*
G36*
X852960Y-4662280D02*
G01*
X850980Y-4664260D01*
X850980Y-4695740D01*
X852960Y-4697720D01*
X884440Y-4697720D01*
X886420Y-4695740D01*
X886420Y-4686220D01*
X871860Y-4686220D01*
X871860Y-4673220D01*
X886420Y-4673220D01*
X886420Y-4664260D01*
X884440Y-4662280D01*
G37*
G36*
X915560Y-4662280D02*
G01*
X913580Y-4664260D01*
X913580Y-4673780D01*
X928139Y-4673780D01*
X928139Y-4686780D01*
X913580Y-4686780D01*
X913580Y-4695740D01*
X915560Y-4697720D01*
X947039Y-4697720D01*
X949020Y-4695740D01*
X949020Y-4664260D01*
X947039Y-4662280D01*
G37*
G36*
X852960Y-5222279D02*
G01*
X850980Y-5224260D01*
X850980Y-5255740D01*
X852960Y-5257720D01*
X884440Y-5257720D01*
X886420Y-5255740D01*
X886420Y-5246220D01*
X871860Y-5246220D01*
X871860Y-5233220D01*
X886420Y-5233220D01*
X886420Y-5224260D01*
X884440Y-5222279D01*
G37*
G36*
X915560Y-5222279D02*
G01*
X913580Y-5224260D01*
X913580Y-5233780D01*
X928139Y-5233780D01*
X928139Y-5246780D01*
X913580Y-5246780D01*
X913580Y-5255740D01*
X915560Y-5257720D01*
X947039Y-5257720D01*
X949020Y-5255740D01*
X949020Y-5224260D01*
X947039Y-5222279D01*
G37*
G36*
X852960Y-5782279D02*
G01*
X850980Y-5784260D01*
X850980Y-5815740D01*
X852960Y-5817720D01*
X884440Y-5817720D01*
X886420Y-5815740D01*
X886420Y-5806220D01*
X871860Y-5806220D01*
X871860Y-5793220D01*
X886420Y-5793220D01*
X886420Y-5784260D01*
X884440Y-5782279D01*
G37*
G36*
X915560Y-5782279D02*
G01*
X913580Y-5784260D01*
X913580Y-5793780D01*
X928139Y-5793780D01*
X928139Y-5806780D01*
X913580Y-5806780D01*
X913580Y-5815740D01*
X915560Y-5817720D01*
X947039Y-5817720D01*
X949020Y-5815740D01*
X949020Y-5784260D01*
X947039Y-5782279D01*
G37*
G36*
X852960Y-6342279D02*
G01*
X850980Y-6344260D01*
X850980Y-6375740D01*
X852960Y-6377720D01*
X884440Y-6377720D01*
X886420Y-6375740D01*
X886420Y-6366220D01*
X871860Y-6366220D01*
X871860Y-6353220D01*
X886420Y-6353220D01*
X886420Y-6344260D01*
X884440Y-6342279D01*
G37*
G36*
X915560Y-6342279D02*
G01*
X913580Y-6344260D01*
X913580Y-6353780D01*
X928139Y-6353780D01*
X928139Y-6366780D01*
X913580Y-6366780D01*
X913580Y-6375740D01*
X915560Y-6377720D01*
X947039Y-6377720D01*
X949020Y-6375740D01*
X949020Y-6344260D01*
X947039Y-6342279D01*
G37*
G36*
X852960Y-6902279D02*
G01*
X850980Y-6904260D01*
X850980Y-6935740D01*
X852960Y-6937720D01*
X884440Y-6937720D01*
X886420Y-6935740D01*
X886420Y-6926220D01*
X871860Y-6926220D01*
X871860Y-6913220D01*
X886420Y-6913220D01*
X886420Y-6904260D01*
X884440Y-6902279D01*
G37*
G36*
X915560Y-6902279D02*
G01*
X913580Y-6904260D01*
X913580Y-6913780D01*
X928139Y-6913780D01*
X928139Y-6926780D01*
X913580Y-6926780D01*
X913580Y-6935740D01*
X915560Y-6937720D01*
X947039Y-6937720D01*
X949020Y-6935740D01*
X949020Y-6904260D01*
X947039Y-6902279D01*
G37*
G36*
X852960Y-7462279D02*
G01*
X850980Y-7464260D01*
X850980Y-7495740D01*
X852960Y-7497720D01*
X884440Y-7497720D01*
X886420Y-7495740D01*
X886420Y-7486220D01*
X871860Y-7486220D01*
X871860Y-7473220D01*
X886420Y-7473220D01*
X886420Y-7464260D01*
X884440Y-7462279D01*
G37*
G36*
X915560Y-7462279D02*
G01*
X913580Y-7464260D01*
X913580Y-7473780D01*
X928139Y-7473780D01*
X928139Y-7486780D01*
X913580Y-7486780D01*
X913580Y-7495740D01*
X915560Y-7497720D01*
X947039Y-7497720D01*
X949020Y-7495740D01*
X949020Y-7464260D01*
X947039Y-7462279D01*
G37*
G36*
X852960Y-8022279D02*
G01*
X850980Y-8024260D01*
X850980Y-8055740D01*
X852960Y-8057720D01*
X884440Y-8057720D01*
X886420Y-8055740D01*
X886420Y-8046220D01*
X871860Y-8046220D01*
X871860Y-8033220D01*
X886420Y-8033220D01*
X886420Y-8024260D01*
X884440Y-8022279D01*
G37*
G36*
X915560Y-8022279D02*
G01*
X913580Y-8024260D01*
X913580Y-8033780D01*
X928139Y-8033780D01*
X928139Y-8046780D01*
X913580Y-8046780D01*
X913580Y-8055740D01*
X915560Y-8057720D01*
X947039Y-8057720D01*
X949020Y-8055740D01*
X949020Y-8024260D01*
X947039Y-8022279D01*
G37*
D10*
G01*
X815240Y-8179250D03*
G01*
X815240Y-8204840D03*
G01*
X815240Y-8230429D03*
G01*
X815240Y-8256019D03*
G01*
X815240Y-8281610D03*
G01*
X815240Y-8307209D03*
G01*
X815240Y-8332799D03*
G01*
X815240Y-8358389D03*
G01*
X815240Y-8383980D03*
G01*
X815240Y-8409570D03*
G01*
X815240Y-8435159D03*
G01*
X815240Y-8460749D03*
G01*
X534760Y-8179250D03*
G01*
X534760Y-8204840D03*
G01*
X534760Y-8230429D03*
G01*
X534760Y-8256019D03*
G01*
X534760Y-8281610D03*
G01*
X534760Y-8307209D03*
G01*
X534760Y-8332799D03*
G01*
X534760Y-8358389D03*
G01*
X534760Y-8383980D03*
G01*
X534760Y-8409570D03*
G01*
X534760Y-8435159D03*
G01*
X534760Y-8460749D03*
M02*
