G04 Layer: TopLayer*
G04 EasyEDA v6.5.51, 2026-01-06 12:56:04*
G04 1113702be1cd41808594c38f47402924,c4b17a851ec2441f8c3d070488828a27,10*
G04 Gerber Generator version 0.2*
G04 Scale: 100 percent, Rotated: No, Reflected: No *
G04 Dimensions in inches *
G04 leading zeros omitted , absolute positions ,3 integer and 6 decimal *
%FSLAX36Y36*%
%MOIN*%

%ADD10C,0.0100*%
%ADD11C,0.0984*%
%ADD12C,0.0600*%
%ADD13C,0.1181*%
%ADD14C,0.0591*%
%ADD15C,0.0116*%
%ADD16C,0.0244*%

%LPD*%
D10*
X734099Y-8600000D02*
G01*
X734099Y-8635900D01*
X715000Y-8655000D01*
X520000Y-8655000D01*
X430000Y-8565000D01*
X430000Y-8385000D01*
X495500Y-1212699D02*
G01*
X235000Y-1473200D01*
X235000Y-2805000D01*
X282500Y-2852500D01*
X527500Y-2852500D01*
X810000Y-3135000D01*
X810000Y-3304099D01*
X854530Y-1037130D02*
G01*
X761660Y-1130000D01*
X365000Y-1130000D01*
X205000Y-1290000D01*
X205000Y-3305000D01*
X615940Y-3000000D02*
G01*
X710000Y-3094059D01*
X710000Y-3304095D01*
X545000Y-1725000D02*
G01*
X545000Y-1725000D01*
X670000Y-1605000D01*
X670000Y-1280000D01*
X737300Y-1212699D01*
X854502Y-1212699D01*
X1080000Y-8180000D02*
G01*
X1085000Y-8180000D01*
X1085000Y-4310000D01*
X1000000Y-4225000D01*
X700000Y-4225000D01*
X675000Y-4200000D01*
X670000Y-3725000D01*
X285000Y-3355000D02*
G01*
X710904Y-3355000D01*
X760000Y-3404095D01*
X734099Y-4120000D02*
G01*
X789102Y-4175000D01*
X1070000Y-4175000D01*
X1115000Y-4220000D01*
X1115000Y-8205000D01*
X734099Y-3000000D02*
G01*
X1070000Y-3000000D01*
X1175000Y-3105000D01*
X1175000Y-8255000D01*
X734099Y-760000D02*
G01*
X1295000Y-1320900D01*
X1295000Y-8360000D01*
X1300000Y-8360000D01*
X734099Y-3560000D02*
G01*
X739099Y-3565000D01*
X1025000Y-3565000D01*
X1145000Y-3685000D01*
X1145000Y-8230000D01*
X560000Y-3404099D02*
G01*
X235000Y-3405000D01*
X205000Y-3305000D02*
G01*
X510000Y-3304099D01*
X165000Y-3435000D02*
G01*
X495000Y-3435000D01*
X525000Y-3465000D01*
X855000Y-3465000D01*
X860000Y-3460000D01*
X860000Y-3404094D01*
X734099Y-205000D02*
G01*
X1325000Y-795900D01*
X1325000Y-8385000D01*
X734050Y-1320000D02*
G01*
X1170000Y-1320000D01*
X1265000Y-1415000D01*
X1265000Y-8335000D01*
X734050Y-1880000D02*
G01*
X1235000Y-2380949D01*
X1235000Y-8305000D01*
X734099Y-2440000D02*
G01*
X1180000Y-2440000D01*
X1205000Y-2465000D01*
X1205000Y-8280000D01*
X733998Y-7480000D02*
G01*
X663998Y-7550000D01*
X550000Y-7550000D01*
X430000Y-7670000D01*
X430000Y-8335000D01*
X733998Y-6920000D02*
G01*
X725000Y-6928998D01*
X725000Y-7005000D01*
X700000Y-7030000D01*
X480000Y-7030000D01*
X405000Y-7105000D01*
X405000Y-8310000D01*
X733998Y-6360000D02*
G01*
X683998Y-6410000D01*
X470000Y-6410000D01*
X380000Y-6500000D01*
X380000Y-8285000D01*
X733998Y-5800000D02*
G01*
X668998Y-5865000D01*
X460000Y-5865000D01*
X355000Y-5970000D01*
X355000Y-8255000D01*
X733998Y-5240000D02*
G01*
X683998Y-5290000D01*
X380000Y-5290000D01*
X325000Y-5345000D01*
X325000Y-8230000D01*
X733998Y-4680000D02*
G01*
X733998Y-4726001D01*
X650000Y-4810000D01*
X410000Y-4810000D01*
X300000Y-4920000D01*
X300000Y-8205000D01*
X734099Y-8040000D02*
G01*
X674099Y-8100000D01*
X490000Y-8100000D01*
X465000Y-8125000D01*
X465000Y-8358800D01*
X465000Y-8358800D01*
D11*
G01*
X373389Y-3502525D03*
G01*
X996610Y-3502525D03*
D12*
G01*
X432640Y-3815904D03*
G01*
X532640Y-3815904D03*
G01*
X837359Y-3815904D03*
G01*
X937359Y-3815904D03*
G01*
X510000Y-3304095D03*
G01*
X560000Y-3404095D03*
G01*
X610000Y-3304095D03*
G01*
X660000Y-3404095D03*
G01*
X710000Y-3304095D03*
G01*
X760000Y-3404095D03*
G01*
X810000Y-3304095D03*
G01*
X860000Y-3404095D03*
D13*
G01*
X854530Y-1037130D03*
G01*
X854530Y-1212719D03*
G01*
X854530Y-1427680D03*
G01*
X854530Y-1602869D03*
G01*
X495470Y-1602869D03*
G01*
X495470Y-1427680D03*
G01*
X495470Y-1212719D03*
G01*
X495470Y-1037130D03*
D14*
G01*
X734050Y-205000D03*
G01*
X615940Y-205000D03*
G01*
X734050Y-760000D03*
G01*
X615940Y-760000D03*
G01*
X734050Y-1320000D03*
G01*
X615940Y-1320000D03*
G01*
X734050Y-1880000D03*
G01*
X615940Y-1880000D03*
G01*
X734050Y-2440000D03*
G01*
X615940Y-2440000D03*
G01*
X734050Y-3000000D03*
G01*
X615940Y-3000000D03*
G01*
X734050Y-3560000D03*
G01*
X615940Y-3560000D03*
G01*
X734050Y-4120000D03*
G01*
X615940Y-4120000D03*
G01*
X734050Y-4680000D03*
G01*
X615940Y-4680000D03*
G01*
X734050Y-5240000D03*
G01*
X615940Y-5240000D03*
G01*
X734050Y-5800000D03*
G01*
X615940Y-5800000D03*
G01*
X734050Y-6360000D03*
G01*
X615940Y-6360000D03*
G01*
X734050Y-6920000D03*
G01*
X615940Y-6920000D03*
G01*
X734050Y-7479989D03*
G01*
X615940Y-7479989D03*
G01*
X734050Y-8040000D03*
G01*
X615940Y-8040000D03*
G01*
X734050Y-8600000D03*
G01*
X615940Y-8600000D03*
D16*
G01*
X1325000Y-8385000D03*
G01*
X1300000Y-8360000D03*
G01*
X1265000Y-8335000D03*
G01*
X1235000Y-8305000D03*
G01*
X1205000Y-8280000D03*
G01*
X1175000Y-8255000D03*
G01*
X1145000Y-8230000D03*
G01*
X1115000Y-8205000D03*
G01*
X300000Y-8205000D03*
G01*
X325000Y-8230000D03*
G01*
X355000Y-8255000D03*
G01*
X380000Y-8285000D03*
G01*
X405000Y-8310000D03*
G01*
X430000Y-8335000D03*
G01*
X465000Y-8358800D03*
G01*
X430000Y-8385000D03*
G01*
X235000Y-3405000D03*
G01*
X205000Y-3305000D03*
G01*
X165000Y-3435000D03*
G01*
X1080000Y-8180000D03*
G01*
X285000Y-3355000D03*
G01*
X545000Y-1725000D03*
G01*
X670000Y-3725000D03*
M02*
