G04 Layer: BottomLayer*
G04 EasyEDA v6.5.51, 2026-01-06 12:56:04*
G04 1113702be1cd41808594c38f47402924,c4b17a851ec2441f8c3d070488828a27,10*
G04 Gerber Generator version 0.2*
G04 Scale: 100 percent, Rotated: No, Reflected: No *
G04 Dimensions in inches *
G04 leading zeros omitted , absolute positions ,3 integer and 6 decimal *
%FSLAX36Y36*%
%MOIN*%

%AMMACRO1*21,1,$1,$2,0,0,$3*%
%ADD10C,0.0100*%
%ADD11MACRO1,0.034X0.0318X90.0000*%
%ADD12O,0.059055X0.015748*%
%ADD13C,0.0984*%
%ADD14C,0.0600*%
%ADD15C,0.0115*%
%ADD16C,0.1181*%
%ADD17C,0.0591*%
%ADD18C,0.0244*%

%LPD*%
D10*
X734099Y-2440000D02*
G01*
X734099Y-2624099D01*
X820000Y-2710000D01*
X870299Y-2710000D01*
X615900Y-2440000D02*
G01*
X570000Y-2485900D01*
X570000Y-2954099D01*
X615900Y-3000000D01*
X615900Y-5800000D02*
G01*
X575000Y-5840900D01*
X575000Y-6325000D01*
X610000Y-6360000D01*
X615900Y-6360000D01*
X815200Y-8409600D02*
G01*
X899600Y-8409600D01*
X1010000Y-8520000D01*
X1010000Y-8655000D01*
X925000Y-8740000D01*
X450000Y-8740000D01*
X130000Y-8420000D01*
X130000Y-1005000D01*
X190000Y-945000D01*
X580000Y-945000D01*
X585000Y-1210000D01*
X495500Y-1212699D01*
X534760Y-8460752D02*
G01*
X415749Y-8460752D01*
X205000Y-8250002D01*
X205000Y-3305000D01*
X615940Y-8600000D02*
G01*
X615940Y-8040000D01*
X615940Y-1880000D02*
G01*
X555000Y-1940940D01*
X555000Y-2385000D01*
X610000Y-2440000D01*
X615940Y-2440000D01*
X560000Y-3404000D02*
G01*
X560000Y-3194000D01*
X520000Y-3154000D01*
X520000Y-1750000D01*
X545000Y-1725000D01*
X534760Y-8435160D02*
G01*
X435160Y-8435160D01*
X235000Y-8235000D01*
X235000Y-3405000D01*
X615940Y-1320000D02*
G01*
X615940Y-1880000D01*
X495470Y-1602869D02*
G01*
X615940Y-1723339D01*
X615940Y-1880000D01*
X495470Y-1427680D02*
G01*
X285000Y-1638150D01*
X285000Y-3355000D01*
X760000Y-3404099D02*
G01*
X760000Y-3480000D01*
X715000Y-3480000D01*
X670000Y-3525000D01*
X670000Y-3725000D01*
X534760Y-8409570D02*
G01*
X539329Y-8405000D01*
X570000Y-8405000D01*
X585000Y-8420000D01*
X585000Y-8535000D01*
X555000Y-8565000D01*
X555000Y-8660000D01*
X570000Y-8675000D01*
X650000Y-8675000D01*
X675000Y-8650000D01*
X675000Y-8530000D01*
X744250Y-8460749D01*
X815240Y-8460749D01*
X165000Y-3435000D02*
G01*
X165000Y-1075000D01*
X202899Y-1037100D01*
X495500Y-1037100D01*
X815200Y-8435200D02*
G01*
X885200Y-8435200D01*
X975000Y-8525000D01*
X975000Y-8650000D01*
X915000Y-8710000D01*
X475000Y-8710000D01*
X165000Y-8400000D01*
X165000Y-3435000D01*
X810000Y-8460000D02*
G01*
X850000Y-8460000D01*
X929700Y-8539700D01*
X929700Y-8600000D01*
X1300000Y-8360000D02*
G01*
X1298389Y-8358389D01*
X815240Y-8358389D01*
X1205000Y-8280000D02*
G01*
X1203389Y-8281610D01*
X815240Y-8281610D01*
X1175000Y-8255000D02*
G01*
X1173978Y-8256021D01*
X815239Y-8256021D01*
X1145000Y-8230000D02*
G01*
X815600Y-8230000D01*
X815200Y-8230400D01*
X1115000Y-8205000D02*
G01*
X815399Y-8205000D01*
X815200Y-8204799D01*
X815239Y-8179247D02*
G01*
X815991Y-8180000D01*
X1080000Y-8180000D01*
X430000Y-8385000D02*
G01*
X431021Y-8383978D01*
X534760Y-8383978D01*
X854499Y-1427699D02*
G01*
X935000Y-1347199D01*
X935000Y-145000D01*
X929700Y-139699D01*
X929700Y-135000D01*
X854530Y-1427680D02*
G01*
X854530Y-1602869D01*
X615900Y-3560000D02*
G01*
X615900Y-3519099D01*
X710000Y-3425000D01*
X710000Y-3304099D01*
X610000Y-3304099D02*
G01*
X610000Y-3200000D01*
X640000Y-3170000D01*
X885000Y-3170000D01*
X929700Y-3125300D01*
X929700Y-3000000D01*
X1075299Y-3425000D02*
G01*
X945000Y-3425000D01*
X810000Y-3560000D01*
X734099Y-3560000D01*
X660000Y-3404095D02*
G01*
X660000Y-3354095D01*
X610000Y-3304095D01*
X615940Y-4120000D02*
G01*
X615940Y-4680000D01*
X615940Y-4680000D02*
G01*
X615940Y-5240000D01*
X615940Y-7480000D02*
G01*
X615940Y-8040000D01*
X615940Y-7480000D02*
G01*
X615940Y-6920000D01*
X615940Y-6360000D02*
G01*
X615940Y-6920000D01*
X615940Y-5240000D02*
G01*
X615940Y-5800000D01*
X615940Y-3560000D02*
G01*
X615940Y-4120000D01*
X870339Y-3000000D02*
G01*
X734050Y-3000000D01*
X870339Y-4120000D02*
G01*
X734050Y-4120000D01*
X870339Y-4680000D02*
G01*
X734050Y-4680000D01*
X734050Y-5240000D02*
G01*
X870339Y-5240000D01*
X734050Y-5800000D02*
G01*
X870339Y-5800000D01*
X734050Y-6360000D02*
G01*
X870339Y-6360000D01*
X734050Y-6920000D02*
G01*
X870339Y-6920000D01*
X734050Y-7480000D02*
G01*
X870339Y-7480000D01*
X734050Y-8040000D02*
G01*
X870339Y-8040000D01*
X734050Y-8600000D02*
G01*
X870339Y-8600000D01*
X929660Y-8040000D02*
G01*
X929660Y-7480000D01*
X929660Y-6920000D02*
G01*
X929660Y-7480000D01*
X929660Y-6920000D02*
G01*
X929660Y-6360000D01*
X929660Y-6360000D02*
G01*
X929660Y-5800000D01*
X929660Y-5800000D02*
G01*
X929660Y-5240000D01*
X929660Y-5240000D02*
G01*
X929660Y-4680000D01*
X929660Y-4680000D02*
G01*
X929660Y-4120000D01*
X929657Y-4120000D02*
G01*
X1134660Y-3914998D01*
X1134660Y-3425000D01*
X1134660Y-3425000D02*
G01*
X1134660Y-3205001D01*
X929657Y-3000000D01*
X924657Y-2995001D02*
G01*
X929657Y-3000000D01*
X734050Y-205000D02*
G01*
X804049Y-135000D01*
X870339Y-135000D01*
X615940Y-1320000D02*
G01*
X615940Y-760000D01*
X615900Y-205000D02*
G01*
X605000Y-205000D01*
X550000Y-260000D01*
X550000Y-694099D01*
X615900Y-760000D01*
X929660Y-2710000D02*
G01*
X929657Y-2710001D01*
X929657Y-3000000D01*
X929660Y-2485000D02*
G01*
X929660Y-2560000D01*
X929660Y-2560000D02*
G01*
X929660Y-2630000D01*
X929660Y-2630000D02*
G01*
X929660Y-2710000D01*
X870299Y-2630000D02*
G01*
X810000Y-2630000D01*
X790000Y-2610000D01*
X790000Y-1935900D01*
X734099Y-1880000D01*
X870299Y-2560000D02*
G01*
X830000Y-2519699D01*
X830000Y-1875000D01*
X734099Y-1779099D01*
X734099Y-1320000D01*
X734099Y-760000D02*
G01*
X775000Y-800900D01*
X775000Y-1740000D01*
X870299Y-1835300D01*
X870299Y-2485000D01*
X854530Y-1602869D02*
G01*
X929660Y-1678000D01*
X929660Y-2485000D01*
X815240Y-8455749D02*
G01*
X760749Y-8455749D01*
X735000Y-8430000D01*
X735000Y-8160000D01*
X795000Y-8100000D01*
X890000Y-8100000D01*
X929701Y-8060298D01*
X929701Y-8040000D01*
X300000Y-8205000D02*
G01*
X534600Y-8205000D01*
X534760Y-8204839D01*
X325000Y-8230000D02*
G01*
X534331Y-8230000D01*
X534760Y-8230429D01*
X355000Y-8255000D02*
G01*
X356021Y-8256021D01*
X534760Y-8256021D01*
X380000Y-8285000D02*
G01*
X383389Y-8281611D01*
X534760Y-8281611D01*
X405000Y-8310000D02*
G01*
X407788Y-8307212D01*
X534760Y-8307212D01*
X430000Y-8335000D02*
G01*
X432202Y-8332798D01*
X534760Y-8332798D01*
X534800Y-8358400D02*
G01*
X465000Y-8358800D01*
X1325000Y-8385000D02*
G01*
X1323980Y-8383980D01*
X815240Y-8383980D01*
X1265000Y-8335000D02*
G01*
X1262799Y-8332799D01*
X815240Y-8332799D01*
X1235000Y-8305000D02*
G01*
X1232790Y-8307209D01*
X815240Y-8307209D01*
X615900Y-8040000D02*
G01*
X490000Y-8040000D01*
X450000Y-8080000D01*
X450000Y-8160000D01*
X469200Y-8179200D01*
X534800Y-8179200D01*
D11*
G01*
X870344Y-2485000D03*
G01*
X929655Y-2485000D03*
G01*
X870344Y-2560000D03*
G01*
X929655Y-2560000D03*
G01*
X870344Y-2630000D03*
G01*
X929655Y-2630000D03*
G01*
X870344Y-2710000D03*
G01*
X929655Y-2710000D03*
G01*
X870344Y-8600000D03*
G01*
X929655Y-8600000D03*
G01*
X870344Y-135000D03*
G01*
X929655Y-135000D03*
G01*
X870344Y-3000000D03*
G01*
X929655Y-3000000D03*
G01*
X1075344Y-3425000D03*
G01*
X1134655Y-3425000D03*
G01*
X870344Y-4120000D03*
G01*
X929655Y-4120000D03*
G01*
X870344Y-4680000D03*
G01*
X929655Y-4680000D03*
G01*
X870344Y-5240000D03*
G01*
X929655Y-5240000D03*
G01*
X870344Y-5800000D03*
G01*
X929655Y-5800000D03*
G01*
X870344Y-6360000D03*
G01*
X929655Y-6360000D03*
G01*
X870344Y-6920000D03*
G01*
X929655Y-6920000D03*
G01*
X870344Y-7480000D03*
G01*
X929655Y-7480000D03*
G01*
X870344Y-8040000D03*
G01*
X929655Y-8040000D03*
D12*
G01*
X815240Y-8179250D03*
G01*
X815240Y-8204840D03*
G01*
X815240Y-8230429D03*
G01*
X815240Y-8256019D03*
G01*
X815240Y-8281610D03*
G01*
X815240Y-8307209D03*
G01*
X815240Y-8332799D03*
G01*
X815240Y-8358389D03*
G01*
X815240Y-8383980D03*
G01*
X815240Y-8409570D03*
G01*
X815240Y-8435159D03*
G01*
X815240Y-8460749D03*
G01*
X534760Y-8179250D03*
G01*
X534760Y-8204840D03*
G01*
X534760Y-8230429D03*
G01*
X534760Y-8256019D03*
G01*
X534760Y-8281610D03*
G01*
X534760Y-8307209D03*
G01*
X534760Y-8332799D03*
G01*
X534760Y-8358389D03*
G01*
X534760Y-8383980D03*
G01*
X534760Y-8409570D03*
G01*
X534760Y-8435159D03*
G01*
X534760Y-8460749D03*
D13*
G01*
X373389Y-3502525D03*
G01*
X996610Y-3502525D03*
D14*
G01*
X432640Y-3815904D03*
G01*
X532640Y-3815904D03*
G01*
X837359Y-3815904D03*
G01*
X937359Y-3815904D03*
G01*
X510000Y-3304095D03*
G01*
X560000Y-3404095D03*
G01*
X610000Y-3304095D03*
G01*
X660000Y-3404095D03*
G01*
X710000Y-3304095D03*
G01*
X760000Y-3404095D03*
G01*
X810000Y-3304095D03*
G01*
X860000Y-3404095D03*
D16*
G01*
X854530Y-1037130D03*
G01*
X854530Y-1212719D03*
G01*
X854530Y-1427680D03*
G01*
X854530Y-1602869D03*
G01*
X495470Y-1602869D03*
G01*
X495470Y-1427680D03*
G01*
X495470Y-1212719D03*
G01*
X495470Y-1037130D03*
D17*
G01*
X734050Y-205000D03*
G01*
X615940Y-205000D03*
G01*
X734050Y-760000D03*
G01*
X615940Y-760000D03*
G01*
X734050Y-1320000D03*
G01*
X615940Y-1320000D03*
G01*
X734050Y-1880000D03*
G01*
X615940Y-1880000D03*
G01*
X734050Y-2440000D03*
G01*
X615940Y-2440000D03*
G01*
X734050Y-3000000D03*
G01*
X615940Y-3000000D03*
G01*
X734050Y-3560000D03*
G01*
X615940Y-3560000D03*
G01*
X734050Y-4120000D03*
G01*
X615940Y-4120000D03*
G01*
X734050Y-4680000D03*
G01*
X615940Y-4680000D03*
G01*
X734050Y-5240000D03*
G01*
X615940Y-5240000D03*
G01*
X734050Y-5800000D03*
G01*
X615940Y-5800000D03*
G01*
X734050Y-6360000D03*
G01*
X615940Y-6360000D03*
G01*
X734050Y-6920000D03*
G01*
X615940Y-6920000D03*
G01*
X734050Y-7479989D03*
G01*
X615940Y-7479989D03*
G01*
X734050Y-8040000D03*
G01*
X615940Y-8040000D03*
G01*
X734050Y-8600000D03*
G01*
X615940Y-8600000D03*
D18*
G01*
X1325000Y-8385000D03*
G01*
X1300000Y-8360000D03*
G01*
X1265000Y-8335000D03*
G01*
X1235000Y-8305000D03*
G01*
X1205000Y-8280000D03*
G01*
X1175000Y-8255000D03*
G01*
X1145000Y-8230000D03*
G01*
X1115000Y-8205000D03*
G01*
X300000Y-8205000D03*
G01*
X325000Y-8230000D03*
G01*
X355000Y-8255000D03*
G01*
X380000Y-8285000D03*
G01*
X405000Y-8310000D03*
G01*
X430000Y-8335000D03*
G01*
X465000Y-8358800D03*
G01*
X430000Y-8385000D03*
G01*
X235000Y-3405000D03*
G01*
X205000Y-3305000D03*
G01*
X165000Y-3435000D03*
G01*
X1080000Y-8180000D03*
G01*
X285000Y-3355000D03*
G01*
X545000Y-1725000D03*
G01*
X670000Y-3725000D03*
M02*
