G04 Layer: TopSilkscreenLayer*
G04 EasyEDA v6.5.51, 2026-01-06 12:56:04*
G04 1113702be1cd41808594c38f47402924,c4b17a851ec2441f8c3d070488828a27,10*
G04 Gerber Generator version 0.2*
G04 Scale: 100 percent, Rotated: No, Reflected: No *
G04 Dimensions in inches *
G04 leading zeros omitted , absolute positions ,3 integer and 6 decimal *
%FSLAX36Y36*%
%MOIN*%

%ADD10C,0.0080*%
%ADD11C,0.0060*%
%ADD12C,0.0100*%
%ADD13C,0.0196*%

%LPD*%
D10*
X979499Y-1477500D02*
G01*
X975900Y-1470199D01*
X968599Y-1462899D01*
X961400Y-1459299D01*
X946800Y-1459299D01*
X939499Y-1462899D01*
X932299Y-1470199D01*
X928599Y-1477500D01*
X925000Y-1488400D01*
X925000Y-1506500D01*
X928599Y-1517500D01*
X932299Y-1524699D01*
X939499Y-1531999D01*
X946800Y-1535599D01*
X961400Y-1535599D01*
X968599Y-1531999D01*
X975900Y-1524699D01*
X979499Y-1517500D01*
X979499Y-1506500D01*
X961400Y-1506500D02*
G01*
X979499Y-1506500D01*
X1003500Y-1459299D02*
G01*
X1003500Y-1535599D01*
X1003500Y-1459299D02*
G01*
X1036300Y-1459299D01*
X1047200Y-1462899D01*
X1050799Y-1466500D01*
X1054499Y-1473800D01*
X1054499Y-1481100D01*
X1050799Y-1488400D01*
X1047200Y-1491999D01*
X1036300Y-1495599D01*
X1003500Y-1495599D01*
X1028999Y-1495599D02*
G01*
X1054499Y-1535599D01*
X1078500Y-1459299D02*
G01*
X1078500Y-1535599D01*
X1078500Y-1459299D02*
G01*
X1103900Y-1459299D01*
X1114799Y-1462899D01*
X1122100Y-1470199D01*
X1125699Y-1477500D01*
X1129399Y-1488400D01*
X1129399Y-1506500D01*
X1125699Y-1517500D01*
X1122100Y-1524699D01*
X1114799Y-1531999D01*
X1103900Y-1535599D01*
X1078500Y-1535599D01*
X995900Y-1180199D02*
G01*
X988599Y-1172899D01*
X977700Y-1169299D01*
X963199Y-1169299D01*
X952299Y-1172899D01*
X945000Y-1180199D01*
X945000Y-1187500D01*
X948599Y-1194699D01*
X952299Y-1198400D01*
X959499Y-1201999D01*
X981400Y-1209299D01*
X988599Y-1212899D01*
X992299Y-1216500D01*
X995900Y-1223800D01*
X995900Y-1234699D01*
X988599Y-1241999D01*
X977700Y-1245599D01*
X963199Y-1245599D01*
X952299Y-1241999D01*
X945000Y-1234699D01*
X1023500Y-1187500D02*
G01*
X1023500Y-1183800D01*
X1027200Y-1176500D01*
X1030799Y-1172899D01*
X1038100Y-1169299D01*
X1052600Y-1169299D01*
X1059899Y-1172899D01*
X1063500Y-1176500D01*
X1067200Y-1183800D01*
X1067200Y-1191100D01*
X1063500Y-1198400D01*
X1056300Y-1209299D01*
X1019899Y-1245599D01*
X1070799Y-1245599D01*
X365900Y-1010199D02*
G01*
X358600Y-1002899D01*
X347699Y-999299D01*
X333200Y-999299D01*
X322300Y-1002899D01*
X315000Y-1010199D01*
X315000Y-1017500D01*
X318600Y-1024699D01*
X322300Y-1028400D01*
X329499Y-1031999D01*
X351399Y-1039299D01*
X358600Y-1042899D01*
X362300Y-1046500D01*
X365900Y-1053800D01*
X365900Y-1064699D01*
X358600Y-1071999D01*
X347699Y-1075599D01*
X333200Y-1075599D01*
X322300Y-1071999D01*
X315000Y-1064699D01*
X389899Y-1013800D02*
G01*
X397199Y-1010199D01*
X408099Y-999299D01*
X408099Y-1075599D01*
X250000Y-1389299D02*
G01*
X250000Y-1465599D01*
X339499Y-1374699D02*
G01*
X274000Y-1491100D01*
X385300Y-1389299D02*
G01*
X378000Y-1392899D01*
X370700Y-1400199D01*
X367100Y-1407500D01*
X363499Y-1418400D01*
X363499Y-1436500D01*
X367100Y-1447500D01*
X370700Y-1454699D01*
X378000Y-1461999D01*
X385300Y-1465599D01*
X399800Y-1465599D01*
X407100Y-1461999D01*
X414400Y-1454699D01*
X418000Y-1447500D01*
X421599Y-1436500D01*
X421599Y-1418400D01*
X418000Y-1407500D01*
X414400Y-1400199D01*
X407100Y-1392899D01*
X399800Y-1389299D01*
X385300Y-1389299D01*
X230000Y-1549299D02*
G01*
X259099Y-1625599D01*
X288200Y-1549299D02*
G01*
X259099Y-1625599D01*
X355799Y-1585599D02*
G01*
X348499Y-1578400D01*
X341300Y-1574699D01*
X330399Y-1574699D01*
X323099Y-1578400D01*
X315799Y-1585599D01*
X312199Y-1596500D01*
X312199Y-1603800D01*
X315799Y-1614699D01*
X323099Y-1621999D01*
X330399Y-1625599D01*
X341300Y-1625599D01*
X348499Y-1621999D01*
X355799Y-1614699D01*
X423499Y-1585599D02*
G01*
X416199Y-1578400D01*
X408899Y-1574699D01*
X398000Y-1574699D01*
X390700Y-1578400D01*
X383499Y-1585599D01*
X379800Y-1596500D01*
X379800Y-1603800D01*
X383499Y-1614699D01*
X390700Y-1621999D01*
X398000Y-1625599D01*
X408899Y-1625599D01*
X416199Y-1621999D01*
X423499Y-1614699D01*
X995900Y-995199D02*
G01*
X988599Y-987899D01*
X977700Y-984299D01*
X963199Y-984299D01*
X952299Y-987899D01*
X945000Y-995199D01*
X945000Y-1002500D01*
X948599Y-1009699D01*
X952299Y-1013400D01*
X959499Y-1016999D01*
X981400Y-1024299D01*
X988599Y-1027899D01*
X992299Y-1031500D01*
X995900Y-1038800D01*
X995900Y-1049699D01*
X988599Y-1056999D01*
X977700Y-1060599D01*
X963199Y-1060599D01*
X952299Y-1056999D01*
X945000Y-1049699D01*
X1027200Y-984299D02*
G01*
X1067200Y-984299D01*
X1045399Y-1013400D01*
X1056300Y-1013400D01*
X1063500Y-1016999D01*
X1067200Y-1020599D01*
X1070799Y-1031500D01*
X1070799Y-1038800D01*
X1067200Y-1049699D01*
X1059899Y-1056999D01*
X1048999Y-1060599D01*
X1038100Y-1060599D01*
X1027200Y-1056999D01*
X1023500Y-1053400D01*
X1019899Y-1046100D01*
X350900Y-1190199D02*
G01*
X343600Y-1182899D01*
X332699Y-1179299D01*
X318200Y-1179299D01*
X307300Y-1182899D01*
X300000Y-1190199D01*
X300000Y-1197500D01*
X303600Y-1204699D01*
X307300Y-1208400D01*
X314499Y-1211999D01*
X336399Y-1219299D01*
X343600Y-1222899D01*
X347300Y-1226500D01*
X350900Y-1233800D01*
X350900Y-1244699D01*
X343600Y-1251999D01*
X332699Y-1255599D01*
X318200Y-1255599D01*
X307300Y-1251999D01*
X300000Y-1244699D01*
X396700Y-1179299D02*
G01*
X385799Y-1182899D01*
X378499Y-1193800D01*
X374899Y-1211999D01*
X374899Y-1222899D01*
X378499Y-1241100D01*
X385799Y-1251999D01*
X396700Y-1255599D01*
X404000Y-1255599D01*
X414899Y-1251999D01*
X422199Y-1241100D01*
X425799Y-1222899D01*
X425799Y-1211999D01*
X422199Y-1193800D01*
X414899Y-1182899D01*
X404000Y-1179299D01*
X396700Y-1179299D01*
D11*
X630001Y-64598D02*
G01*
X630001Y-107498D01*
X630001Y-64598D02*
G01*
X648402Y-64598D01*
X654502Y-66597D01*
X656601Y-68697D01*
X658602Y-72797D01*
X658602Y-78897D01*
X656601Y-82997D01*
X654502Y-84998D01*
X648402Y-87098D01*
X630001Y-87098D01*
X672101Y-64598D02*
G01*
X672101Y-107498D01*
X672101Y-64598D02*
G01*
X690502Y-64598D01*
X696702Y-66597D01*
X698701Y-68697D01*
X700801Y-72797D01*
X700801Y-76898D01*
X698701Y-80997D01*
X696702Y-82997D01*
X690502Y-84998D01*
X672101Y-84998D01*
X686502Y-84998D02*
G01*
X700801Y-107498D01*
X726502Y-64598D02*
G01*
X720401Y-66597D01*
X716302Y-72797D01*
X714301Y-82997D01*
X714301Y-89097D01*
X716302Y-99398D01*
X720401Y-105497D01*
X726502Y-107498D01*
X730601Y-107498D01*
X736801Y-105497D01*
X740902Y-99398D01*
X742901Y-89097D01*
X742901Y-82997D01*
X740902Y-72797D01*
X736801Y-66597D01*
X730601Y-64598D01*
X726502Y-64598D01*
X630001Y-864598D02*
G01*
X630001Y-907498D01*
X630001Y-864598D02*
G01*
X648402Y-864598D01*
X654502Y-866597D01*
X656601Y-868697D01*
X658602Y-872797D01*
X658602Y-878897D01*
X656601Y-882997D01*
X654502Y-884998D01*
X648402Y-887098D01*
X630001Y-887098D01*
X672101Y-864598D02*
G01*
X672101Y-907498D01*
X672101Y-864598D02*
G01*
X690502Y-864598D01*
X696702Y-866597D01*
X698701Y-868697D01*
X700801Y-872797D01*
X700801Y-876898D01*
X698701Y-880997D01*
X696702Y-882997D01*
X690502Y-884998D01*
X672101Y-884998D01*
X686502Y-884998D02*
G01*
X700801Y-907498D01*
X714301Y-872797D02*
G01*
X718402Y-870698D01*
X724502Y-864598D01*
X724502Y-907498D01*
X625001Y-1179598D02*
G01*
X625001Y-1222498D01*
X625001Y-1179598D02*
G01*
X643402Y-1179598D01*
X649502Y-1181597D01*
X651601Y-1183697D01*
X653602Y-1187797D01*
X653602Y-1193897D01*
X651601Y-1197997D01*
X649502Y-1199998D01*
X643402Y-1202098D01*
X625001Y-1202098D01*
X667101Y-1179598D02*
G01*
X667101Y-1222498D01*
X667101Y-1179598D02*
G01*
X685502Y-1179598D01*
X691702Y-1181597D01*
X693701Y-1183697D01*
X695801Y-1187797D01*
X695801Y-1191898D01*
X693701Y-1195997D01*
X691702Y-1197997D01*
X685502Y-1199998D01*
X667101Y-1199998D01*
X681502Y-1199998D02*
G01*
X695801Y-1222498D01*
X711302Y-1189798D02*
G01*
X711302Y-1187797D01*
X713402Y-1183697D01*
X715401Y-1181597D01*
X719502Y-1179598D01*
X727701Y-1179598D01*
X731801Y-1181597D01*
X733802Y-1183697D01*
X735902Y-1187797D01*
X735902Y-1191898D01*
X733802Y-1195997D01*
X729702Y-1202098D01*
X709301Y-1222498D01*
X737901Y-1222498D01*
X630001Y-1739598D02*
G01*
X630001Y-1782498D01*
X630001Y-1739598D02*
G01*
X648402Y-1739598D01*
X654502Y-1741597D01*
X656601Y-1743697D01*
X658602Y-1747797D01*
X658602Y-1753897D01*
X656601Y-1757997D01*
X654502Y-1759998D01*
X648402Y-1762098D01*
X630001Y-1762098D01*
X672101Y-1739598D02*
G01*
X672101Y-1782498D01*
X672101Y-1739598D02*
G01*
X690502Y-1739598D01*
X696702Y-1741597D01*
X698701Y-1743697D01*
X700801Y-1747797D01*
X700801Y-1751898D01*
X698701Y-1755997D01*
X696702Y-1757997D01*
X690502Y-1759998D01*
X672101Y-1759998D01*
X686502Y-1759998D02*
G01*
X700801Y-1782498D01*
X718402Y-1739598D02*
G01*
X740902Y-1739598D01*
X728602Y-1755997D01*
X734702Y-1755997D01*
X738802Y-1757997D01*
X740902Y-1759998D01*
X742901Y-1766197D01*
X742901Y-1770297D01*
X740902Y-1776397D01*
X736801Y-1780497D01*
X730601Y-1782498D01*
X724502Y-1782498D01*
X718402Y-1780497D01*
X716302Y-1778497D01*
X714301Y-1774398D01*
X635001Y-2299598D02*
G01*
X635001Y-2342498D01*
X635001Y-2299598D02*
G01*
X653402Y-2299598D01*
X659502Y-2301597D01*
X661601Y-2303697D01*
X663602Y-2307797D01*
X663602Y-2313897D01*
X661601Y-2317997D01*
X659502Y-2319998D01*
X653402Y-2322098D01*
X635001Y-2322098D01*
X677101Y-2299598D02*
G01*
X677101Y-2342498D01*
X677101Y-2299598D02*
G01*
X695502Y-2299598D01*
X701702Y-2301597D01*
X703701Y-2303697D01*
X705801Y-2307797D01*
X705801Y-2311898D01*
X703701Y-2315997D01*
X701702Y-2317997D01*
X695502Y-2319998D01*
X677101Y-2319998D01*
X691502Y-2319998D02*
G01*
X705801Y-2342498D01*
X739702Y-2299598D02*
G01*
X719301Y-2328198D01*
X750001Y-2328198D01*
X739702Y-2299598D02*
G01*
X739702Y-2342498D01*
X620001Y-2854598D02*
G01*
X620001Y-2897498D01*
X620001Y-2854598D02*
G01*
X638402Y-2854598D01*
X644502Y-2856597D01*
X646601Y-2858697D01*
X648602Y-2862797D01*
X648602Y-2868897D01*
X646601Y-2872997D01*
X644502Y-2874998D01*
X638402Y-2877098D01*
X620001Y-2877098D01*
X662101Y-2854598D02*
G01*
X662101Y-2897498D01*
X662101Y-2854598D02*
G01*
X680502Y-2854598D01*
X686702Y-2856597D01*
X688701Y-2858697D01*
X690801Y-2862797D01*
X690801Y-2866898D01*
X688701Y-2870997D01*
X686702Y-2872997D01*
X680502Y-2874998D01*
X662101Y-2874998D01*
X676502Y-2874998D02*
G01*
X690801Y-2897498D01*
X728802Y-2854598D02*
G01*
X708402Y-2854598D01*
X706302Y-2872997D01*
X708402Y-2870997D01*
X714502Y-2868897D01*
X720601Y-2868897D01*
X726801Y-2870997D01*
X730902Y-2874998D01*
X732901Y-2881197D01*
X732901Y-2885297D01*
X730902Y-2891397D01*
X726801Y-2895497D01*
X720601Y-2897498D01*
X714502Y-2897498D01*
X708402Y-2895497D01*
X706302Y-2893497D01*
X704301Y-2889398D01*
X635001Y-3419598D02*
G01*
X635001Y-3462498D01*
X635001Y-3419598D02*
G01*
X653402Y-3419598D01*
X659502Y-3421597D01*
X661601Y-3423697D01*
X663602Y-3427797D01*
X663602Y-3433897D01*
X661601Y-3437997D01*
X659502Y-3439998D01*
X653402Y-3442098D01*
X635001Y-3442098D01*
X677101Y-3419598D02*
G01*
X677101Y-3462498D01*
X677101Y-3419598D02*
G01*
X695502Y-3419598D01*
X701702Y-3421597D01*
X703701Y-3423697D01*
X705801Y-3427797D01*
X705801Y-3431898D01*
X703701Y-3435997D01*
X701702Y-3437997D01*
X695502Y-3439998D01*
X677101Y-3439998D01*
X691502Y-3439998D02*
G01*
X705801Y-3462498D01*
X743802Y-3425698D02*
G01*
X741801Y-3421597D01*
X735601Y-3419598D01*
X731502Y-3419598D01*
X725401Y-3421597D01*
X721302Y-3427797D01*
X719301Y-3437997D01*
X719301Y-3448198D01*
X721302Y-3456397D01*
X725401Y-3460497D01*
X731502Y-3462498D01*
X733602Y-3462498D01*
X739702Y-3460497D01*
X743802Y-3456397D01*
X745902Y-3450297D01*
X745902Y-3448198D01*
X743802Y-3442098D01*
X739702Y-3437997D01*
X733602Y-3435997D01*
X731502Y-3435997D01*
X725401Y-3437997D01*
X721302Y-3442098D01*
X719301Y-3448198D01*
X620001Y-3969598D02*
G01*
X620001Y-4012498D01*
X620001Y-3969598D02*
G01*
X638402Y-3969598D01*
X644502Y-3971597D01*
X646601Y-3973697D01*
X648602Y-3977797D01*
X648602Y-3983897D01*
X646601Y-3987997D01*
X644502Y-3989998D01*
X638402Y-3992098D01*
X620001Y-3992098D01*
X662101Y-3969598D02*
G01*
X662101Y-4012498D01*
X662101Y-3969598D02*
G01*
X680502Y-3969598D01*
X686702Y-3971597D01*
X688701Y-3973697D01*
X690801Y-3977797D01*
X690801Y-3981898D01*
X688701Y-3985997D01*
X686702Y-3987997D01*
X680502Y-3989998D01*
X662101Y-3989998D01*
X676502Y-3989998D02*
G01*
X690801Y-4012498D01*
X732901Y-3969598D02*
G01*
X712501Y-4012498D01*
X704301Y-3969598D02*
G01*
X732901Y-3969598D01*
X620001Y-4539598D02*
G01*
X620001Y-4582498D01*
X620001Y-4539598D02*
G01*
X638402Y-4539598D01*
X644502Y-4541597D01*
X646601Y-4543697D01*
X648602Y-4547797D01*
X648602Y-4553897D01*
X646601Y-4557997D01*
X644502Y-4559998D01*
X638402Y-4562098D01*
X620001Y-4562098D01*
X662101Y-4539598D02*
G01*
X662101Y-4582498D01*
X662101Y-4539598D02*
G01*
X680502Y-4539598D01*
X686702Y-4541597D01*
X688701Y-4543697D01*
X690801Y-4547797D01*
X690801Y-4551898D01*
X688701Y-4555998D01*
X686702Y-4557997D01*
X680502Y-4559998D01*
X662101Y-4559998D01*
X676502Y-4559998D02*
G01*
X690801Y-4582498D01*
X714502Y-4539598D02*
G01*
X708402Y-4541597D01*
X706302Y-4545698D01*
X706302Y-4549798D01*
X708402Y-4553897D01*
X712501Y-4555998D01*
X720601Y-4557997D01*
X726801Y-4559998D01*
X730902Y-4564097D01*
X732901Y-4568198D01*
X732901Y-4574398D01*
X730902Y-4578498D01*
X728802Y-4580497D01*
X722701Y-4582498D01*
X714502Y-4582498D01*
X708402Y-4580497D01*
X706302Y-4578498D01*
X704301Y-4574398D01*
X704301Y-4568198D01*
X706302Y-4564097D01*
X710401Y-4559998D01*
X716502Y-4557997D01*
X724702Y-4555998D01*
X728802Y-4553897D01*
X730902Y-4549798D01*
X730902Y-4545698D01*
X728802Y-4541597D01*
X722701Y-4539598D01*
X714502Y-4539598D01*
X630001Y-5094598D02*
G01*
X630001Y-5137498D01*
X630001Y-5094598D02*
G01*
X648402Y-5094598D01*
X654502Y-5096597D01*
X656601Y-5098697D01*
X658602Y-5102797D01*
X658602Y-5108897D01*
X656601Y-5112997D01*
X654502Y-5114998D01*
X648402Y-5117098D01*
X630001Y-5117098D01*
X672101Y-5094598D02*
G01*
X672101Y-5137498D01*
X672101Y-5094598D02*
G01*
X690502Y-5094598D01*
X696702Y-5096597D01*
X698701Y-5098697D01*
X700801Y-5102797D01*
X700801Y-5106898D01*
X698701Y-5110998D01*
X696702Y-5112997D01*
X690502Y-5114998D01*
X672101Y-5114998D01*
X686502Y-5114998D02*
G01*
X700801Y-5137498D01*
X740902Y-5108897D02*
G01*
X738802Y-5114998D01*
X734702Y-5119097D01*
X728602Y-5121197D01*
X726502Y-5121197D01*
X720401Y-5119097D01*
X716302Y-5114998D01*
X714301Y-5108897D01*
X714301Y-5106898D01*
X716302Y-5100698D01*
X720401Y-5096597D01*
X726502Y-5094598D01*
X728602Y-5094598D01*
X734702Y-5096597D01*
X738802Y-5100698D01*
X740902Y-5108897D01*
X740902Y-5119097D01*
X738802Y-5129398D01*
X734702Y-5135497D01*
X728602Y-5137498D01*
X724502Y-5137498D01*
X718402Y-5135497D01*
X716302Y-5131397D01*
X610001Y-5654598D02*
G01*
X610001Y-5697498D01*
X610001Y-5654598D02*
G01*
X628402Y-5654598D01*
X634502Y-5656597D01*
X636601Y-5658697D01*
X638602Y-5662797D01*
X638602Y-5668897D01*
X636601Y-5672997D01*
X634502Y-5674998D01*
X628402Y-5677098D01*
X610001Y-5677098D01*
X652101Y-5654598D02*
G01*
X652101Y-5697498D01*
X652101Y-5654598D02*
G01*
X670502Y-5654598D01*
X676702Y-5656597D01*
X678701Y-5658697D01*
X680801Y-5662797D01*
X680801Y-5666898D01*
X678701Y-5670998D01*
X676702Y-5672997D01*
X670502Y-5674998D01*
X652101Y-5674998D01*
X666502Y-5674998D02*
G01*
X680801Y-5697498D01*
X694301Y-5662797D02*
G01*
X698402Y-5660698D01*
X704502Y-5654598D01*
X704502Y-5697498D01*
X730302Y-5654598D02*
G01*
X724101Y-5656597D01*
X720001Y-5662797D01*
X718002Y-5672997D01*
X718002Y-5679097D01*
X720001Y-5689398D01*
X724101Y-5695497D01*
X730302Y-5697498D01*
X734402Y-5697498D01*
X740502Y-5695497D01*
X744601Y-5689398D01*
X746601Y-5679097D01*
X746601Y-5672997D01*
X744601Y-5662797D01*
X740502Y-5656597D01*
X734402Y-5654598D01*
X730302Y-5654598D01*
X620001Y-6214598D02*
G01*
X620001Y-6257498D01*
X620001Y-6214598D02*
G01*
X638402Y-6214598D01*
X644502Y-6216597D01*
X646601Y-6218697D01*
X648602Y-6222797D01*
X648602Y-6228897D01*
X646601Y-6232997D01*
X644502Y-6234998D01*
X638402Y-6237098D01*
X620001Y-6237098D01*
X662101Y-6214598D02*
G01*
X662101Y-6257498D01*
X662101Y-6214598D02*
G01*
X680502Y-6214598D01*
X686702Y-6216597D01*
X688701Y-6218697D01*
X690801Y-6222797D01*
X690801Y-6226898D01*
X688701Y-6230998D01*
X686702Y-6232997D01*
X680502Y-6234998D01*
X662101Y-6234998D01*
X676502Y-6234998D02*
G01*
X690801Y-6257498D01*
X704301Y-6222797D02*
G01*
X708402Y-6220698D01*
X714502Y-6214598D01*
X714502Y-6257498D01*
X728002Y-6222797D02*
G01*
X732101Y-6220698D01*
X738202Y-6214598D01*
X738202Y-6257498D01*
X615001Y-6764598D02*
G01*
X615001Y-6807498D01*
X615001Y-6764598D02*
G01*
X633402Y-6764598D01*
X639502Y-6766597D01*
X641601Y-6768697D01*
X643602Y-6772797D01*
X643602Y-6778897D01*
X641601Y-6782997D01*
X639502Y-6784998D01*
X633402Y-6787098D01*
X615001Y-6787098D01*
X657101Y-6764598D02*
G01*
X657101Y-6807498D01*
X657101Y-6764598D02*
G01*
X675502Y-6764598D01*
X681702Y-6766597D01*
X683701Y-6768697D01*
X685801Y-6772797D01*
X685801Y-6776898D01*
X683701Y-6780998D01*
X681702Y-6782997D01*
X675502Y-6784998D01*
X657101Y-6784998D01*
X671502Y-6784998D02*
G01*
X685801Y-6807498D01*
X699301Y-6772797D02*
G01*
X703402Y-6770698D01*
X709502Y-6764598D01*
X709502Y-6807498D01*
X725001Y-6774798D02*
G01*
X725001Y-6772797D01*
X727101Y-6768697D01*
X729101Y-6766597D01*
X733202Y-6764598D01*
X741401Y-6764598D01*
X745502Y-6766597D01*
X747501Y-6768697D01*
X749601Y-6772797D01*
X749601Y-6776898D01*
X747501Y-6780998D01*
X743501Y-6787098D01*
X723002Y-6807498D01*
X751601Y-6807498D01*
X673951Y-7341603D02*
G01*
X673951Y-7384503D01*
X673951Y-7341603D02*
G01*
X692352Y-7341603D01*
X698452Y-7343602D01*
X700551Y-7345702D01*
X702552Y-7349803D01*
X702552Y-7355902D01*
X700551Y-7360003D01*
X698452Y-7362003D01*
X692352Y-7364103D01*
X673951Y-7364103D01*
X716051Y-7341603D02*
G01*
X716051Y-7384503D01*
X716051Y-7341603D02*
G01*
X734452Y-7341603D01*
X740652Y-7343602D01*
X742651Y-7345702D01*
X744751Y-7349803D01*
X744751Y-7353903D01*
X742651Y-7358002D01*
X740652Y-7360003D01*
X734452Y-7362003D01*
X716051Y-7362003D01*
X730452Y-7362003D02*
G01*
X744751Y-7384503D01*
X758252Y-7349803D02*
G01*
X762352Y-7347703D01*
X768451Y-7341603D01*
X768451Y-7384503D01*
X786051Y-7341603D02*
G01*
X808551Y-7341603D01*
X796252Y-7358002D01*
X802452Y-7358002D01*
X806451Y-7360003D01*
X808551Y-7362003D01*
X810551Y-7368202D01*
X810551Y-7372303D01*
X808551Y-7378402D01*
X804452Y-7382503D01*
X798352Y-7384503D01*
X792151Y-7384503D01*
X786051Y-7382503D01*
X783951Y-7380502D01*
X781952Y-7376403D01*
X673951Y-7901617D02*
G01*
X673951Y-7944517D01*
X673951Y-7901617D02*
G01*
X692352Y-7901617D01*
X698452Y-7903617D01*
X700551Y-7905717D01*
X702552Y-7909817D01*
X702552Y-7915918D01*
X700551Y-7920018D01*
X698452Y-7922017D01*
X692352Y-7924117D01*
X673951Y-7924117D01*
X716051Y-7901617D02*
G01*
X716051Y-7944517D01*
X716051Y-7901617D02*
G01*
X734452Y-7901617D01*
X740652Y-7903617D01*
X742651Y-7905717D01*
X744751Y-7909817D01*
X744751Y-7913918D01*
X742651Y-7918018D01*
X740652Y-7920018D01*
X734452Y-7922017D01*
X716051Y-7922017D01*
X730452Y-7922017D02*
G01*
X744751Y-7944517D01*
X758252Y-7909817D02*
G01*
X762352Y-7907718D01*
X768451Y-7901617D01*
X768451Y-7944517D01*
X802452Y-7901617D02*
G01*
X781952Y-7930218D01*
X812651Y-7930218D01*
X802452Y-7901617D02*
G01*
X802452Y-7944517D01*
X675001Y-8409597D02*
G01*
X675001Y-8452497D01*
X675001Y-8409597D02*
G01*
X693402Y-8409597D01*
X699502Y-8411598D01*
X701601Y-8413698D01*
X703602Y-8417798D01*
X703602Y-8423898D01*
X701601Y-8427997D01*
X699502Y-8429997D01*
X693402Y-8432097D01*
X675001Y-8432097D01*
X717101Y-8409597D02*
G01*
X717101Y-8452497D01*
X717101Y-8409597D02*
G01*
X735502Y-8409597D01*
X741702Y-8411598D01*
X743701Y-8413698D01*
X745801Y-8417798D01*
X745801Y-8421898D01*
X743701Y-8425998D01*
X741702Y-8427997D01*
X735502Y-8429997D01*
X717101Y-8429997D01*
X731502Y-8429997D02*
G01*
X745801Y-8452497D01*
X759301Y-8417798D02*
G01*
X763401Y-8415698D01*
X769502Y-8409597D01*
X769502Y-8452497D01*
X807502Y-8409597D02*
G01*
X787102Y-8409597D01*
X785002Y-8427997D01*
X787102Y-8425998D01*
X793202Y-8423898D01*
X799402Y-8423898D01*
X805501Y-8425998D01*
X809602Y-8429997D01*
X811602Y-8436198D01*
X811602Y-8440298D01*
X809602Y-8446398D01*
X805501Y-8450497D01*
X799402Y-8452497D01*
X793202Y-8452497D01*
X787102Y-8450497D01*
X785002Y-8448498D01*
X783001Y-8444398D01*
D12*
X718305Y-295551D02*
G01*
X627755Y-295551D01*
X726179Y-122323D02*
G01*
X627755Y-122323D01*
X647440Y-122323D02*
G01*
X647440Y-153820D01*
X710432Y-153820D02*
G01*
X710432Y-173503D01*
X647440Y-173503D02*
G01*
X647440Y-181898D01*
X647440Y-228101D02*
G01*
X647440Y-244369D01*
X706494Y-248315D02*
G01*
X706494Y-267991D01*
X647440Y-267991D02*
G01*
X647440Y-295551D01*
X647440Y-153820D02*
G01*
X710432Y-153820D01*
X647440Y-181898D02*
G01*
X702532Y-181898D01*
X647440Y-228101D02*
G01*
X702532Y-228101D01*
X647440Y-267991D02*
G01*
X706494Y-267991D01*
X706494Y-248315D02*
G01*
X647440Y-248315D01*
X718305Y-850551D02*
G01*
X627755Y-850551D01*
X726179Y-677323D02*
G01*
X627755Y-677323D01*
X647440Y-677323D02*
G01*
X647440Y-708820D01*
X710432Y-708820D02*
G01*
X710432Y-728503D01*
X647440Y-728503D02*
G01*
X647440Y-736898D01*
X647440Y-783101D02*
G01*
X647440Y-799369D01*
X706494Y-803315D02*
G01*
X706494Y-822991D01*
X647440Y-822991D02*
G01*
X647440Y-850551D01*
X647440Y-708820D02*
G01*
X710432Y-708820D01*
X647440Y-736898D02*
G01*
X702532Y-736898D01*
X647440Y-783101D02*
G01*
X702532Y-783101D01*
X647440Y-822991D02*
G01*
X706494Y-822991D01*
X706494Y-803315D02*
G01*
X647440Y-803315D01*
X718305Y-1410551D02*
G01*
X627755Y-1410551D01*
X726179Y-1237323D02*
G01*
X627755Y-1237323D01*
X647440Y-1237323D02*
G01*
X647440Y-1268820D01*
X710432Y-1268820D02*
G01*
X710432Y-1288503D01*
X647440Y-1288503D02*
G01*
X647440Y-1296898D01*
X647440Y-1343101D02*
G01*
X647440Y-1359369D01*
X706494Y-1363315D02*
G01*
X706494Y-1382991D01*
X647440Y-1382991D02*
G01*
X647440Y-1410551D01*
X647440Y-1268820D02*
G01*
X710432Y-1268820D01*
X647440Y-1296898D02*
G01*
X702532Y-1296898D01*
X647440Y-1343101D02*
G01*
X702532Y-1343101D01*
X647440Y-1382991D02*
G01*
X706494Y-1382991D01*
X706494Y-1363315D02*
G01*
X647440Y-1363315D01*
X718305Y-1970551D02*
G01*
X627755Y-1970551D01*
X726179Y-1797323D02*
G01*
X627755Y-1797323D01*
X647440Y-1797323D02*
G01*
X647440Y-1828820D01*
X710432Y-1828820D02*
G01*
X710432Y-1848503D01*
X647440Y-1848503D02*
G01*
X647440Y-1856898D01*
X647440Y-1903101D02*
G01*
X647440Y-1919369D01*
X706494Y-1923315D02*
G01*
X706494Y-1942991D01*
X647440Y-1942991D02*
G01*
X647440Y-1970551D01*
X647440Y-1828820D02*
G01*
X710432Y-1828820D01*
X647440Y-1856898D02*
G01*
X702532Y-1856898D01*
X647440Y-1903101D02*
G01*
X702532Y-1903101D01*
X647440Y-1942991D02*
G01*
X706494Y-1942991D01*
X706494Y-1923315D02*
G01*
X647440Y-1923315D01*
X718305Y-2530551D02*
G01*
X627755Y-2530551D01*
X726179Y-2357323D02*
G01*
X627755Y-2357323D01*
X647440Y-2357323D02*
G01*
X647440Y-2388820D01*
X710432Y-2388820D02*
G01*
X710432Y-2408503D01*
X647440Y-2408503D02*
G01*
X647440Y-2416898D01*
X647440Y-2463101D02*
G01*
X647440Y-2479369D01*
X706494Y-2483316D02*
G01*
X706494Y-2502991D01*
X647440Y-2502991D02*
G01*
X647440Y-2530551D01*
X647440Y-2388820D02*
G01*
X710432Y-2388820D01*
X647440Y-2416898D02*
G01*
X702532Y-2416898D01*
X647440Y-2463101D02*
G01*
X702532Y-2463101D01*
X647440Y-2502991D02*
G01*
X706494Y-2502991D01*
X706494Y-2483316D02*
G01*
X647440Y-2483316D01*
X718305Y-3090551D02*
G01*
X627755Y-3090551D01*
X726179Y-2917323D02*
G01*
X627755Y-2917323D01*
X647440Y-2917323D02*
G01*
X647440Y-2948820D01*
X710432Y-2948820D02*
G01*
X710432Y-2968503D01*
X647440Y-2968503D02*
G01*
X647440Y-2976898D01*
X647440Y-3023101D02*
G01*
X647440Y-3039369D01*
X706494Y-3043316D02*
G01*
X706494Y-3062991D01*
X647440Y-3062991D02*
G01*
X647440Y-3090551D01*
X647440Y-2948820D02*
G01*
X710432Y-2948820D01*
X647440Y-2976898D02*
G01*
X702532Y-2976898D01*
X647440Y-3023101D02*
G01*
X702532Y-3023101D01*
X647440Y-3062991D02*
G01*
X706494Y-3062991D01*
X706494Y-3043316D02*
G01*
X647440Y-3043316D01*
X718305Y-3650551D02*
G01*
X627755Y-3650551D01*
X726179Y-3477323D02*
G01*
X627755Y-3477323D01*
X647440Y-3477323D02*
G01*
X647440Y-3508820D01*
X710432Y-3508820D02*
G01*
X710432Y-3528503D01*
X647440Y-3528503D02*
G01*
X647440Y-3536898D01*
X647440Y-3583101D02*
G01*
X647440Y-3599369D01*
X706494Y-3603316D02*
G01*
X706494Y-3622991D01*
X647440Y-3622991D02*
G01*
X647440Y-3650551D01*
X647440Y-3508820D02*
G01*
X710432Y-3508820D01*
X647440Y-3536898D02*
G01*
X702532Y-3536898D01*
X647440Y-3583101D02*
G01*
X702532Y-3583101D01*
X647440Y-3622991D02*
G01*
X706494Y-3622991D01*
X706494Y-3603316D02*
G01*
X647440Y-3603316D01*
X718305Y-4210551D02*
G01*
X627755Y-4210551D01*
X726179Y-4037323D02*
G01*
X627755Y-4037323D01*
X647440Y-4037323D02*
G01*
X647440Y-4068820D01*
X710432Y-4068820D02*
G01*
X710432Y-4088503D01*
X647440Y-4088503D02*
G01*
X647440Y-4096898D01*
X647440Y-4143101D02*
G01*
X647440Y-4159369D01*
X706494Y-4163316D02*
G01*
X706494Y-4182991D01*
X647440Y-4182991D02*
G01*
X647440Y-4210551D01*
X647440Y-4068820D02*
G01*
X710432Y-4068820D01*
X647440Y-4096898D02*
G01*
X702532Y-4096898D01*
X647440Y-4143101D02*
G01*
X702532Y-4143101D01*
X647440Y-4182991D02*
G01*
X706494Y-4182991D01*
X706494Y-4163316D02*
G01*
X647440Y-4163316D01*
X718305Y-4770551D02*
G01*
X627755Y-4770551D01*
X726179Y-4597323D02*
G01*
X627755Y-4597323D01*
X647440Y-4597323D02*
G01*
X647440Y-4628820D01*
X710432Y-4628820D02*
G01*
X710432Y-4648503D01*
X647440Y-4648503D02*
G01*
X647440Y-4656898D01*
X647440Y-4703101D02*
G01*
X647440Y-4719369D01*
X706494Y-4723316D02*
G01*
X706494Y-4742991D01*
X647440Y-4742991D02*
G01*
X647440Y-4770551D01*
X647440Y-4628820D02*
G01*
X710432Y-4628820D01*
X647440Y-4656898D02*
G01*
X702532Y-4656898D01*
X647440Y-4703101D02*
G01*
X702532Y-4703101D01*
X647440Y-4742991D02*
G01*
X706494Y-4742991D01*
X706494Y-4723316D02*
G01*
X647440Y-4723316D01*
X718305Y-5330551D02*
G01*
X627755Y-5330551D01*
X726179Y-5157323D02*
G01*
X627755Y-5157323D01*
X647440Y-5157323D02*
G01*
X647440Y-5188820D01*
X710432Y-5188820D02*
G01*
X710432Y-5208503D01*
X647440Y-5208503D02*
G01*
X647440Y-5216898D01*
X647440Y-5263101D02*
G01*
X647440Y-5279369D01*
X706494Y-5283316D02*
G01*
X706494Y-5302991D01*
X647440Y-5302991D02*
G01*
X647440Y-5330551D01*
X647440Y-5188820D02*
G01*
X710432Y-5188820D01*
X647440Y-5216898D02*
G01*
X702532Y-5216898D01*
X647440Y-5263101D02*
G01*
X702532Y-5263101D01*
X647440Y-5302991D02*
G01*
X706494Y-5302991D01*
X706494Y-5283316D02*
G01*
X647440Y-5283316D01*
X718305Y-5890551D02*
G01*
X627755Y-5890551D01*
X726179Y-5717323D02*
G01*
X627755Y-5717323D01*
X647440Y-5717323D02*
G01*
X647440Y-5748820D01*
X710432Y-5748820D02*
G01*
X710432Y-5768503D01*
X647440Y-5768503D02*
G01*
X647440Y-5776898D01*
X647440Y-5823101D02*
G01*
X647440Y-5839369D01*
X706494Y-5843316D02*
G01*
X706494Y-5862991D01*
X647440Y-5862991D02*
G01*
X647440Y-5890551D01*
X647440Y-5748820D02*
G01*
X710432Y-5748820D01*
X647440Y-5776898D02*
G01*
X702532Y-5776898D01*
X647440Y-5823101D02*
G01*
X702532Y-5823101D01*
X647440Y-5862991D02*
G01*
X706494Y-5862991D01*
X706494Y-5843316D02*
G01*
X647440Y-5843316D01*
X718305Y-6450551D02*
G01*
X627755Y-6450551D01*
X726179Y-6277323D02*
G01*
X627755Y-6277323D01*
X647440Y-6277323D02*
G01*
X647440Y-6308820D01*
X710432Y-6308820D02*
G01*
X710432Y-6328503D01*
X647440Y-6328503D02*
G01*
X647440Y-6336898D01*
X647440Y-6383101D02*
G01*
X647440Y-6399369D01*
X706494Y-6403316D02*
G01*
X706494Y-6422991D01*
X647440Y-6422991D02*
G01*
X647440Y-6450551D01*
X647440Y-6308820D02*
G01*
X710432Y-6308820D01*
X647440Y-6336898D02*
G01*
X702532Y-6336898D01*
X647440Y-6383101D02*
G01*
X702532Y-6383101D01*
X647440Y-6422991D02*
G01*
X706494Y-6422991D01*
X706494Y-6403316D02*
G01*
X647440Y-6403316D01*
X718305Y-7010551D02*
G01*
X627755Y-7010551D01*
X726179Y-6837323D02*
G01*
X627755Y-6837323D01*
X647440Y-6837323D02*
G01*
X647440Y-6868820D01*
X710432Y-6868820D02*
G01*
X710432Y-6888503D01*
X647440Y-6888503D02*
G01*
X647440Y-6896898D01*
X647440Y-6943101D02*
G01*
X647440Y-6959369D01*
X706494Y-6963316D02*
G01*
X706494Y-6982991D01*
X647440Y-6982991D02*
G01*
X647440Y-7010551D01*
X647440Y-6868820D02*
G01*
X710432Y-6868820D01*
X647440Y-6896898D02*
G01*
X702532Y-6896898D01*
X647440Y-6943101D02*
G01*
X702532Y-6943101D01*
X647440Y-6982991D02*
G01*
X706494Y-6982991D01*
X706494Y-6963316D02*
G01*
X647440Y-6963316D01*
X718305Y-7570536D02*
G01*
X627755Y-7570536D01*
X726179Y-7397307D02*
G01*
X627755Y-7397307D01*
X647440Y-7397307D02*
G01*
X647440Y-7428805D01*
X710432Y-7428805D02*
G01*
X710432Y-7448488D01*
X647440Y-7448488D02*
G01*
X647440Y-7456884D01*
X647440Y-7503085D02*
G01*
X647440Y-7519355D01*
X706494Y-7523301D02*
G01*
X706494Y-7542977D01*
X647440Y-7542977D02*
G01*
X647440Y-7570536D01*
X647440Y-7428805D02*
G01*
X710432Y-7428805D01*
X647440Y-7456884D02*
G01*
X702532Y-7456884D01*
X647440Y-7503085D02*
G01*
X702532Y-7503085D01*
X647440Y-7542977D02*
G01*
X706494Y-7542977D01*
X706494Y-7523301D02*
G01*
X647440Y-7523301D01*
X718305Y-8130550D02*
G01*
X627755Y-8130550D01*
X726179Y-7957322D02*
G01*
X627755Y-7957322D01*
X647440Y-7957322D02*
G01*
X647440Y-7988819D01*
X710432Y-7988819D02*
G01*
X710432Y-8008503D01*
X647440Y-8008503D02*
G01*
X647440Y-8016899D01*
X647440Y-8063100D02*
G01*
X647440Y-8079369D01*
X706494Y-8083316D02*
G01*
X706494Y-8102992D01*
X647440Y-8102992D02*
G01*
X647440Y-8130550D01*
X647440Y-7988819D02*
G01*
X710432Y-7988819D01*
X647440Y-8016899D02*
G01*
X702532Y-8016899D01*
X647440Y-8063100D02*
G01*
X702532Y-8063100D01*
X647440Y-8102992D02*
G01*
X706494Y-8102992D01*
X706494Y-8083316D02*
G01*
X647440Y-8083316D01*
X718305Y-8690550D02*
G01*
X627755Y-8690550D01*
X726179Y-8517322D02*
G01*
X627755Y-8517322D01*
X647440Y-8517322D02*
G01*
X647440Y-8548819D01*
X710432Y-8548819D02*
G01*
X710432Y-8568503D01*
X647440Y-8568503D02*
G01*
X647440Y-8576899D01*
X647440Y-8623100D02*
G01*
X647440Y-8639369D01*
X706494Y-8643316D02*
G01*
X706494Y-8662992D01*
X647440Y-8662992D02*
G01*
X647440Y-8690550D01*
X647440Y-8548819D02*
G01*
X710432Y-8548819D01*
X647440Y-8576899D02*
G01*
X702532Y-8576899D01*
X647440Y-8623100D02*
G01*
X702532Y-8623100D01*
X647440Y-8662992D02*
G01*
X706494Y-8662992D01*
X706494Y-8643316D02*
G01*
X647440Y-8643316D01*
G75*
G01*
X627770Y-122300D02*
G03*
X627770Y-295600I33898J-86650D01*
G75*
G01*
X718270Y-295600D02*
G03*
X726170Y-122300I-30078J88201D01*
G75*
G01*
X627770Y-677300D02*
G03*
X627770Y-850600I33898J-86650D01*
G75*
G01*
X718270Y-850600D02*
G03*
X726170Y-677300I-30078J88201D01*
G75*
G01*
X627770Y-1237300D02*
G03*
X627770Y-1410600I33898J-86650D01*
G75*
G01*
X718270Y-1410600D02*
G03*
X726170Y-1237300I-30078J88201D01*
G75*
G01*
X627770Y-1797300D02*
G03*
X627770Y-1970600I33898J-86650D01*
G75*
G01*
X718270Y-1970600D02*
G03*
X726170Y-1797300I-30078J88201D01*
G75*
G01*
X627770Y-2357300D02*
G03*
X627770Y-2530600I33898J-86650D01*
G75*
G01*
X718270Y-2530600D02*
G03*
X726170Y-2357300I-30078J88201D01*
G75*
G01*
X627770Y-2917300D02*
G03*
X627770Y-3090600I33898J-86650D01*
G75*
G01*
X718270Y-3090600D02*
G03*
X726170Y-2917300I-30078J88201D01*
G75*
G01*
X627770Y-3477300D02*
G03*
X627770Y-3650600I33898J-86650D01*
G75*
G01*
X718270Y-3650600D02*
G03*
X726170Y-3477300I-30078J88201D01*
G75*
G01*
X627770Y-4037300D02*
G03*
X627770Y-4210600I33898J-86650D01*
G75*
G01*
X718270Y-4210600D02*
G03*
X726170Y-4037300I-30078J88201D01*
G75*
G01*
X627770Y-4597300D02*
G03*
X627770Y-4770600I33898J-86650D01*
G75*
G01*
X718270Y-4770600D02*
G03*
X726170Y-4597300I-30078J88201D01*
G75*
G01*
X627770Y-5157300D02*
G03*
X627770Y-5330600I33898J-86650D01*
G75*
G01*
X718270Y-5330600D02*
G03*
X726170Y-5157300I-30078J88201D01*
G75*
G01*
X627770Y-5717300D02*
G03*
X627770Y-5890600I33898J-86650D01*
G75*
G01*
X718270Y-5890600D02*
G03*
X726170Y-5717300I-30078J88201D01*
G75*
G01*
X627770Y-6277300D02*
G03*
X627770Y-6450600I33898J-86650D01*
G75*
G01*
X718270Y-6450600D02*
G03*
X726170Y-6277300I-30078J88201D01*
G75*
G01*
X627770Y-6837300D02*
G03*
X627770Y-7010600I33898J-86650D01*
G75*
G01*
X718270Y-7010600D02*
G03*
X726170Y-6837300I-30078J88201D01*
G75*
G01*
X627770Y-7397285D02*
G03*
X627770Y-7570585I33898J-86650D01*
G75*
G01*
X718270Y-7570585D02*
G03*
X726170Y-7397285I-30078J88201D01*
G75*
G01*
X627770Y-7957300D02*
G03*
X627770Y-8130600I33898J-86650D01*
G75*
G01*
X718270Y-8130600D02*
G03*
X726170Y-7957300I-30078J88201D01*
G75*
G01*
X627770Y-8517300D02*
G03*
X627770Y-8690600I33898J-86650D01*
G75*
G01*
X718270Y-8690600D02*
G03*
X726170Y-8517300I-30078J88201D01*
M02*
